<?xml version="1.0" standalone="no"?>
<!DOCTYPE svg PUBLIC "-//W3C//DTD SVG 20010904//EN"
 "http://www.w3.org/TR/2001/REC-SVG-20010904/DTD/svg10.dtd">
<svg version="1.0" xmlns="http://www.w3.org/2000/svg"
 width="1920.000000pt" height="1920.000000pt" viewBox="0 0 1920.000000 1920.000000"
 preserveAspectRatio="xMidYMid meet">

<g transform="translate(0.000000,1920.000000) scale(0.100000,-0.100000)"
fill="#000000" stroke="none">
<path d="M8885 18939 c-222 -9 -242 -11 -358 -33 -48 -9 -117 -17 -153 -18
-35 0 -67 -4 -69 -8 -3 -4 -35 -8 -72 -9 -37 -1 -72 -6 -77 -11 -6 -6 -24 -10
-41 -10 -18 0 -54 -7 -81 -15 -27 -8 -89 -24 -139 -35 -91 -21 -154 -38 -326
-91 -53 -16 -107 -29 -122 -29 -14 0 -27 -5 -29 -11 -2 -6 -23 -13 -47 -15
-24 -2 -49 -8 -56 -14 -17 -14 -142 -60 -148 -54 -3 3 -23 -4 -46 -15 -22 -12
-44 -20 -48 -19 -13 4 -123 -44 -123 -53 0 -5 -7 -9 -15 -9 -23 0 -106 -39
-270 -125 -38 -21 -98 -52 -133 -71 -35 -18 -69 -37 -75 -42 -7 -5 -33 -17
-59 -27 -26 -9 -55 -26 -65 -37 -10 -11 -33 -26 -51 -34 -18 -7 -54 -27 -78
-44 -25 -16 -49 -30 -54 -30 -5 0 -32 -22 -61 -50 -29 -27 -57 -50 -63 -50 -6
0 -27 -13 -46 -29 -19 -15 -55 -38 -79 -51 -25 -12 -67 -44 -95 -70 -28 -26
-57 -49 -65 -51 -7 -3 -39 -28 -70 -57 -31 -29 -105 -96 -166 -150 -60 -54
-148 -139 -195 -188 -145 -154 -265 -286 -274 -303 -5 -9 -48 -59 -96 -111
-48 -52 -104 -117 -124 -145 -21 -27 -44 -57 -52 -65 -61 -67 -140 -182 -173
-250 -12 -25 -51 -92 -86 -149 -36 -57 -65 -109 -65 -117 0 -7 -5 -16 -11 -20
-32 -19 -122 -203 -154 -314 -8 -28 -50 -103 -76 -138 -10 -13 -15 -30 -12
-37 2 -8 -5 -26 -16 -41 -12 -15 -21 -32 -21 -38 0 -13 -62 -171 -91 -234 -38
-79 -99 -275 -118 -377 -4 -23 -11 -47 -15 -54 -12 -19 -35 -122 -36 -157 0
-17 -3 -34 -7 -38 -5 -4 -13 -40 -19 -79 -7 -40 -17 -99 -23 -132 -12 -67 -38
-299 -46 -415 -20 -281 -9 -637 26 -845 6 -33 14 -87 19 -120 31 -208 42 -275
55 -315 7 -25 17 -69 20 -98 4 -29 23 -97 42 -150 19 -53 42 -123 50 -155 11
-39 19 -54 24 -45 6 8 9 2 9 -19 0 -33 40 -151 64 -188 7 -11 18 -42 26 -70
16 -62 21 -70 30 -55 5 7 15 -11 25 -46 10 -33 29 -77 42 -100 12 -22 23 -50
23 -60 0 -11 7 -29 15 -40 8 -10 15 -26 15 -35 0 -9 7 -19 15 -23 8 -3 15 -17
15 -32 0 -14 13 -44 28 -67 43 -65 51 -79 74 -130 17 -38 25 -46 39 -42 13 5
19 1 19 -10 0 -10 11 -38 23 -64 13 -25 36 -71 52 -102 16 -31 57 -96 92 -145
34 -49 84 -120 109 -157 80 -119 202 -274 315 -401 25 -28 58 -69 75 -92 46
-65 154 -176 166 -172 13 5 98 -70 98 -86 0 -7 15 -20 33 -30 41 -24 87 -66
87 -81 0 -7 16 -27 35 -46 19 -19 35 -39 35 -45 0 -11 66 -72 170 -158 76 -63
119 -100 160 -136 55 -51 117 -90 141 -90 13 0 38 -16 58 -38 20 -21 44 -41
53 -44 9 -4 22 -19 30 -34 7 -15 20 -30 28 -32 13 -5 13 -3 0 14 -16 20 24 -8
78 -54 l27 -24 -32 22 c-18 12 -33 17 -33 12 0 -9 73 -62 86 -62 4 0 15 -7 24
-15 9 -8 29 -16 43 -17 15 -1 27 -8 27 -15 0 -14 41 -55 48 -48 3 2 -1 11 -8
20 -9 10 -9 15 -1 15 6 0 16 -11 23 -25 6 -13 24 -28 39 -34 31 -11 41 -24 12
-15 -27 9 23 -30 92 -71 33 -20 71 -44 85 -53 13 -9 21 -11 16 -5 -14 24 10
13 39 -17 16 -16 37 -30 47 -30 10 0 18 -4 18 -10 0 -12 62 -52 158 -101 40
-21 90 -52 112 -69 21 -17 56 -37 77 -46 21 -9 59 -32 86 -51 26 -19 76 -47
110 -62 34 -14 77 -36 94 -49 18 -13 63 -37 100 -54 38 -17 70 -33 73 -37 7
-10 635 -321 725 -359 146 -63 373 -169 454 -212 283 -152 460 -402 501 -710
6 -47 16 -89 21 -94 5 -6 9 -21 9 -35 0 -18 3 -22 9 -13 16 26 20 -100 4 -131
-10 -21 -14 -60 -13 -135 1 -59 1 -132 1 -162 l-1 -55 -50 -28 c-27 -15 -56
-37 -63 -48 -15 -21 -14 -21 131 -158 27 -25 122 -71 147 -71 8 0 19 -8 24
-17 6 -10 11 -12 11 -5 0 17 29 15 36 -3 4 -8 10 -12 15 -9 10 6 77 -13 96
-28 9 -8 9 -14 0 -31 -7 -12 -13 -24 -14 -26 -1 -1 -7 0 -13 4 -8 5 -6 11 6
19 40 30 -45 61 -87 32 -22 -14 -28 -13 -67 4 -23 11 -49 17 -56 14 -8 -3 -17
2 -20 13 -3 10 -16 19 -30 19 -21 2 -127 92 -185 157 -8 9 -20 17 -26 17 -20
0 -191 -189 -218 -241 -38 -76 -51 -157 -38 -235 14 -76 31 -119 82 -199 21
-34 39 -66 39 -71 0 -6 13 -17 29 -27 16 -9 46 -37 66 -62 21 -25 44 -45 51
-45 7 0 23 -10 34 -23 16 -16 20 -18 15 -4 -6 14 -3 16 16 13 13 -3 27 -5 30
-5 4 -1 9 -8 13 -16 4 -12 2 -13 -14 -3 -15 10 -22 9 -37 -4 -18 -16 -73 -20
-73 -5 0 4 -6 7 -12 7 -7 0 -24 16 -37 35 -13 19 -29 35 -36 35 -21 0 -84 -94
-106 -155 -75 -214 62 -508 314 -673 88 -57 200 -104 297 -123 36 -7 76 -21
89 -31 13 -10 28 -18 32 -18 5 0 17 -8 27 -18 52 -49 102 -82 133 -86 3 -1 18
-15 33 -33 54 -64 126 -80 170 -39 30 27 34 48 9 41 -10 -3 -3 2 15 10 17 8
32 20 32 26 0 6 7 8 15 5 9 -3 18 1 21 8 3 8 20 20 37 27 61 25 142 93 131
110 -2 4 5 10 16 14 11 3 20 10 20 15 0 5 7 6 17 3 11 -4 14 -3 9 5 -4 7 -2
12 4 12 6 0 20 9 32 19 11 11 57 34 102 52 140 56 236 107 236 127 0 10 25 42
55 72 30 30 55 57 55 60 0 3 -16 4 -35 2 -46 -5 -44 9 4 42 22 15 45 41 51 57
7 16 22 35 33 41 12 6 26 15 31 19 112 90 105 89 184 12 24 -24 47 -43 52 -43
13 0 56 -83 52 -101 -3 -17 -50 -48 -98 -65 -17 -6 -38 -16 -45 -23 -8 -6 -50
-30 -94 -52 -44 -23 -94 -52 -112 -65 -17 -13 -36 -24 -41 -24 -6 0 -12 -3
-14 -7 -2 -5 -21 -17 -42 -28 -21 -11 -59 -39 -84 -62 -25 -24 -51 -43 -57
-43 -7 0 -26 -13 -43 -30 -18 -16 -37 -30 -43 -30 -12 0 -77 -48 -119 -87 -14
-13 -51 -44 -82 -70 -32 -26 -58 -52 -58 -57 0 -6 -31 -40 -68 -76 -38 -36
-93 -99 -124 -141 -65 -87 -102 -117 -124 -98 -8 6 -14 20 -14 30 0 11 -4 19
-9 19 -5 0 -12 11 -15 24 -7 29 -71 125 -100 149 -11 10 -39 35 -61 56 -93 86
-207 170 -285 209 -30 15 -90 53 -133 84 -43 32 -80 58 -82 58 -4 0 -60 34
-160 98 -11 6 -27 15 -35 19 -8 3 -33 21 -55 38 -22 18 -64 47 -93 64 -28 18
-58 41 -65 50 -6 10 -28 26 -47 36 -19 10 -65 38 -102 63 l-67 44 26 42 c25
41 69 86 130 133 37 28 51 62 33 73 -8 5 -43 -13 -94 -47 -88 -61 -98 -71
-156 -155 l-40 -57 53 -46 c28 -25 84 -67 122 -92 39 -26 72 -48 74 -49 1 -2
-4 -17 -13 -35 -9 -18 -16 -41 -16 -51 0 -10 -6 -31 -14 -46 -18 -35 -35 -121
-41 -203 -6 -73 -16 -265 -16 -291 0 -10 -4 -20 -10 -23 -5 -4 -9 -11 -9 -16
0 -6 4 -7 10 -4 7 4 7 -2 1 -18 -9 -24 -28 -146 -35 -225 -7 -71 -26 -208 -36
-258 -6 -28 -10 -55 -9 -60 2 -5 -1 -37 -5 -72 -5 -35 -10 -78 -12 -95 -1 -18
-5 -52 -8 -77 -3 -25 -8 -83 -11 -130 -9 -142 -15 -203 -25 -250 -30 -149 -39
-227 -44 -380 -3 -114 11 -371 23 -417 12 -43 66 -109 91 -111 8 -1 35 -5 60
-10 25 -4 68 -6 95 -4 28 3 71 4 96 3 33 0 49 4 53 14 3 9 19 15 39 15 19 0
40 7 47 15 7 9 15 13 17 11 3 -2 7 -62 9 -133 4 -123 20 -299 30 -345 3 -13 6
-29 6 -35 1 -7 5 -13 9 -13 5 0 8 -17 8 -37 0 -38 6 -94 11 -103 2 -3 4 -52 5
-110 1 -58 4 -128 8 -157 10 -77 72 -197 142 -271 90 -96 141 -130 221 -146
146 -30 192 -36 221 -30 17 3 33 2 36 -3 10 -16 286 -5 344 13 29 9 50 21 47
25 -3 5 -1 9 4 9 5 0 25 11 45 24 34 23 36 24 63 7 43 -26 79 -33 189 -38 55
-2 107 -4 115 -5 32 -2 208 13 270 23 177 28 356 133 375 219 4 19 13 30 23
30 33 0 62 72 67 165 3 67 4 232 2 325 -2 69 -4 75 -24 78 -18 3 -23 -3 -28
-32 -4 -19 -4 -39 0 -45 3 -6 1 -11 -4 -11 -13 0 -15 67 -12 346 2 139 -1 204
-8 209 -6 3 -9 11 -5 16 3 6 6 58 5 117 0 104 10 122 24 42 3 -18 10 -40 15
-50 5 -9 16 -49 25 -89 14 -59 24 -79 55 -110 21 -20 41 -52 45 -70 5 -25 10
-30 16 -20 7 11 9 9 10 -6 1 -11 1 -23 0 -27 -1 -10 60 -25 99 -24 68 2 166
84 128 107 -9 6 -60 -21 -78 -42 -11 -12 -40 -18 -46 -8 -3 6 -13 8 -21 5 -8
-3 -24 0 -36 6 -12 7 -25 11 -29 10 -5 -1 -8 7 -8 17 0 18 7 20 74 20 122 0
203 28 266 91 55 55 72 118 60 216 -10 82 -32 172 -54 225 -7 19 -17 58 -21
86 -5 39 -11 53 -23 54 -10 0 -12 3 -7 5 6 2 9 21 7 42 -10 108 -34 285 -48
347 -18 85 -33 168 -44 255 -11 83 -13 94 -38 195 -6 22 -22 87 -35 145 -14
58 -37 150 -51 205 -28 106 -34 132 -40 180 -3 17 -12 50 -20 74 -9 24 -16 53
-16 65 0 12 -4 26 -8 31 -5 6 -15 37 -22 70 -7 33 -17 65 -22 71 -5 7 -15 46
-23 88 -8 43 -19 85 -24 94 -4 9 -14 42 -21 72 -6 30 -21 75 -31 99 -11 24
-18 46 -15 49 3 3 1 11 -5 19 -6 7 -9 13 -5 13 3 0 2 10 -3 23 -10 26 8 54 49
75 14 7 45 30 69 51 42 36 43 38 30 63 -8 15 -57 72 -109 128 -94 102 -185
168 -222 162 -10 -2 -18 -1 -18 2 0 8 50 85 82 127 15 20 31 51 34 70 6 30 5
32 -7 17 -12 -16 -14 -2 -17 100 -3 84 -8 128 -21 157 -21 48 -69 107 -81 100
-5 -3 -12 1 -17 8 -4 7 -25 26 -46 42 l-38 28 48 26 c31 17 48 33 49 46 2 46
16 67 40 62 20 -3 24 0 24 18 0 12 -6 28 -14 34 -8 7 -13 20 -11 30 2 11 0 35
-5 55 -4 21 -4 36 1 36 5 0 9 17 9 39 0 31 -4 40 -21 44 -25 7 -51 -2 -43 -14
3 -5 1 -9 -5 -9 -12 0 -26 35 -30 77 -2 21 -117 89 -180 107 l-61 17 -2 52
c-3 105 -6 143 -15 177 -5 19 -8 51 -5 71 2 21 -1 40 -7 43 -6 4 -11 28 -11
54 0 63 16 42 25 -33 3 -33 11 -63 17 -66 5 -3 10 -9 9 -12 0 -4 9 -27 20 -52
18 -40 22 -44 40 -34 16 8 19 16 14 42 -4 18 -13 41 -20 53 -8 12 -17 39 -21
60 -3 21 -9 48 -11 59 -8 35 -8 117 0 122 18 11 5 21 -20 14 -22 -6 -29 -16
-39 -57 -11 -46 -12 -41 -11 76 0 69 4 136 9 150 5 14 13 54 18 90 21 163 123
492 179 577 17 25 31 54 31 63 0 10 17 39 38 66 22 27 52 72 68 100 83 148
362 444 604 642 36 30 67 58 68 63 2 5 9 9 16 9 6 0 30 19 51 41 22 23 69 60
105 84 36 23 74 52 84 64 11 11 23 21 27 21 5 0 35 20 66 44 32 24 72 50 88
59 17 9 50 35 75 58 25 23 68 56 95 74 28 18 92 76 144 128 55 55 99 93 107
90 8 -3 22 10 35 32 13 22 38 44 63 56 53 25 178 136 254 227 15 18 36 40 46
50 83 73 140 131 177 179 24 31 65 78 92 104 43 44 61 69 37 54 -6 -3 -7 1 -4
9 3 9 11 16 18 16 6 0 20 13 31 28 11 15 65 80 120 145 55 65 110 132 122 148
12 17 46 57 75 90 29 33 74 92 100 132 26 40 74 113 108 162 33 50 72 106 85
125 76 113 145 237 145 262 0 17 5 27 12 26 11 -3 27 24 72 122 9 19 41 82 71
140 30 58 53 112 52 120 -1 8 8 31 20 50 11 19 24 46 28 60 4 14 23 56 42 93
19 38 33 79 31 91 -1 12 7 33 20 46 12 13 27 42 33 65 5 22 21 69 35 105 13
36 24 70 24 75 0 6 13 42 29 80 15 39 31 92 35 119 9 59 16 77 26 71 8 -5 43
109 60 200 7 33 20 98 31 144 10 46 16 88 14 92 -3 4 1 22 9 40 12 32 30 142
57 354 22 178 29 517 15 715 -10 134 -9 171 1 181 5 4 64 13 133 19 69 6 152
15 185 20 33 5 119 14 190 20 165 13 366 -5 432 -38 23 -12 48 -22 56 -22 21
0 51 -37 54 -68 8 -67 22 -142 29 -153 4 -7 9 -80 10 -163 1 -83 6 -183 9
-222 l6 -71 -104 -6 c-117 -6 -233 -40 -243 -69 -3 -9 -14 -20 -25 -23 -16 -5
-19 -14 -17 -48 3 -36 0 -41 -22 -47 -38 -9 -49 -56 -49 -215 -2 -416 77 -565
320 -612 61 -11 104 -13 159 -8 71 8 441 7 449 -1 2 -2 5 -27 6 -56 7 -150 39
-268 84 -315 18 -19 33 -23 81 -23 110 0 183 51 180 128 -1 49 -1 69 4 121 2
24 -3 55 -10 70 -7 14 -15 37 -19 51 -6 23 -2 26 52 42 180 51 308 111 365
171 92 98 118 202 93 368 -9 57 -20 147 -24 199 -9 104 -29 156 -78 202 -43
41 -111 68 -173 68 -30 0 -60 4 -66 8 -6 4 -17 59 -23 122 -19 175 -40 333
-61 460 -10 63 -24 180 -30 260 -11 144 -13 160 -44 274 -17 61 -87 209 -113
238 -11 13 -21 15 -40 7 -13 -5 -26 -9 -28 -9 -7 0 -26 70 -21 78 8 13 -5 26
-64 66 -30 20 -86 59 -124 86 -38 28 -75 50 -81 50 -6 0 -50 16 -98 36 -131
53 -197 64 -465 74 -289 12 -242 12 -537 1 -132 -5 -309 -16 -394 -25 -85 -8
-157 -13 -162 -11 -10 7 -39 95 -39 121 0 30 -18 71 -51 114 -14 19 -34 60
-44 90 -23 70 -53 130 -65 130 -6 0 -10 8 -10 18 0 9 -16 40 -35 67 -19 28
-39 61 -46 75 -32 72 -47 100 -76 147 -18 29 -39 56 -46 60 -7 4 -19 24 -27
42 -8 19 -28 50 -44 69 l-30 34 25 19 c28 21 129 72 134 67 1 -2 14 -31 28
-65 50 -127 158 -286 232 -344 20 -17 24 -17 29 -3 3 8 2 12 -4 9 -13 -8 -29
34 -35 93 -2 26 -7 59 -9 75 -3 19 0 27 10 27 8 0 14 -10 15 -22 0 -13 2 -32
5 -43 2 -11 6 -32 8 -47 2 -15 11 -40 21 -55 10 -15 19 -49 21 -76 2 -35 9
-57 23 -71 18 -17 21 -18 21 -4 0 9 -4 20 -10 23 -19 12 -11 26 9 16 10 -6 39
-15 63 -20 98 -22 163 28 155 121 -8 96 -212 448 -337 582 -53 56 -60 68 -60
104 0 40 1 41 38 47 20 3 60 12 87 19 l50 13 -47 8 c-26 4 -55 16 -64 26 -15
17 -7 28 10 12 6 -7 25 -11 75 -17 14 -1 27 -8 29 -14 2 -7 9 -9 15 -5 7 4 28
8 47 8 19 0 49 9 67 19 29 18 30 21 15 33 -15 12 -14 13 6 3 26 -13 20 -16
112 60 71 58 70 56 70 117 0 48 -3 56 -42 97 -69 71 -127 80 -264 40 -124 -35
-334 -145 -334 -174 0 -5 10 -17 23 -27 23 -18 62 -92 53 -100 -8 -8 -26 7
-26 23 0 36 -39 80 -80 90 -14 4 -32 13 -41 20 -9 8 -40 16 -70 17 l-54 3 -7
45 c-10 60 -136 307 -200 394 -51 69 -52 69 -61 42 -5 -15 -13 -25 -18 -21 -5
3 -5 14 2 26 6 12 7 18 1 14 -11 -7 -22 15 -22 44 0 23 -52 55 -104 64 -29 6
-43 3 -59 -11 -11 -10 -17 -12 -13 -5 4 6 3 12 -3 12 -5 0 -12 -6 -14 -12 -4
-10 -7 -10 -14 0 -24 33 -79 -86 -70 -151 16 -112 161 -352 283 -466 l73 -69
-57 -49 c-31 -26 -69 -54 -84 -61 -26 -11 -30 -9 -69 31 -22 23 -38 35 -34 27
3 -8 -2 -5 -12 8 -54 69 -77 92 -93 92 -10 0 -21 9 -25 20 -10 30 -112 128
-210 200 -48 36 -115 91 -149 122 -60 56 -140 118 -152 118 -3 0 -28 19 -54
43 -26 23 -65 50 -86 61 -22 10 -47 22 -56 27 -10 5 -24 9 -31 9 -7 0 -24 11
-37 25 -13 14 -30 25 -37 25 -8 0 -25 12 -39 27 -18 19 -27 24 -33 15 -5 -8
-19 1 -47 29 -39 40 -113 89 -134 89 -7 0 -26 12 -43 26 -16 14 -57 39 -91 56
-34 17 -72 39 -85 49 -13 11 -32 19 -42 19 -10 0 -67 27 -126 60 -59 32 -126
63 -149 68 -22 5 -64 25 -92 45 -29 20 -63 39 -75 42 -42 12 -162 57 -202 75
-96 44 -167 71 -172 66 -3 -3 -17 4 -31 14 -13 11 -33 20 -43 20 -10 0 -33 6
-51 14 -57 25 -139 46 -175 46 -45 0 -113 19 -135 38 -18 15 -234 71 -275 72
-12 0 -39 9 -60 19 -21 11 -69 24 -108 30 -38 7 -121 20 -183 31 -63 10 -120
16 -128 13 -8 -3 -21 0 -28 6 -8 7 -20 11 -28 10 -7 -2 -28 1 -47 5 -47 11
-73 14 -266 26 -93 5 -179 13 -190 16 -22 6 -293 33 -340 33 -24 1 -27 -1 -15
-10 11 -8 8 -9 -15 -4 -52 11 -213 12 -410 4z m190 -49 c4 -6 -7 -10 -27 -10
-25 0 -29 3 -18 10 19 13 37 13 45 0z m440 -45 c121 -8 243 -17 270 -20 28 -3
75 -7 105 -9 30 -3 93 -12 140 -20 47 -9 117 -20 155 -26 102 -14 161 -26 345
-70 91 -22 199 -47 240 -56 41 -9 127 -32 190 -50 63 -19 138 -41 165 -49 220
-64 565 -193 720 -269 50 -24 109 -49 132 -55 23 -7 45 -16 49 -22 3 -6 25
-19 48 -29 52 -24 169 -87 314 -170 205 -118 250 -145 304 -182 29 -20 78 -54
108 -75 105 -72 409 -309 533 -415 37 -32 113 -102 168 -156 95 -94 99 -99 77
-109 -13 -6 -45 -27 -72 -48 -39 -30 -48 -33 -44 -17 3 10 2 25 -2 33 -5 8 -5
33 0 57 6 36 5 44 -11 52 -10 6 -22 10 -28 10 -16 0 -34 -70 -26 -109 3 -20 8
-53 10 -74 3 -20 9 -45 14 -55 6 -12 5 -25 -5 -42 -20 -36 -17 -110 5 -143 27
-41 52 -55 112 -63 51 -6 58 -11 132 -85 43 -44 84 -79 92 -79 7 0 18 7 25 15
10 12 3 24 -40 71 -37 41 -48 59 -39 65 8 5 33 -10 69 -41 62 -54 189 -120
230 -120 14 0 31 4 39 9 16 10 33 -8 71 -76 22 -40 24 -42 40 -25 16 16 15 20
-23 75 -28 40 -37 61 -30 68 12 12 83 -85 122 -164 12 -26 38 -68 57 -93 19
-24 34 -48 34 -52 0 -4 10 -23 22 -42 12 -19 23 -39 24 -45 1 -5 18 -35 38
-65 20 -30 36 -60 36 -67 0 -7 10 -31 22 -54 17 -34 19 -42 7 -50 -8 -5 -18
-7 -24 -6 -13 4 -44 67 -45 91 0 20 -122 256 -153 296 -10 14 -25 41 -34 60
l-14 35 -14 -24 c-11 -22 -10 -29 9 -55 11 -17 23 -33 26 -36 9 -9 190 -385
190 -395 0 -2 -21 -30 -46 -61 -82 -100 -129 -265 -141 -496 -13 -239 -4 -366
32 -442 14 -29 27 -68 31 -87 10 -65 37 -143 60 -176 12 -19 28 -51 35 -71 6
-20 25 -52 41 -71 16 -18 34 -43 39 -55 15 -31 130 -117 191 -144 33 -13 65
-20 85 -18 27 4 34 1 38 -17 18 -71 -14 -704 -45 -887 -5 -30 -16 -100 -25
-155 -9 -55 -21 -113 -27 -130 -5 -16 -13 -50 -18 -75 -5 -25 -18 -79 -29
-120 -11 -41 -25 -95 -32 -120 -6 -25 -25 -79 -40 -120 -16 -41 -29 -81 -29
-88 0 -7 -5 -20 -10 -30 -9 -16 -37 -88 -94 -252 -13 -36 -33 -83 -45 -105
-11 -22 -21 -47 -21 -57 0 -9 -5 -20 -12 -24 -7 -4 -8 -3 -4 4 4 7 3 12 -2 12
-15 0 -54 -108 -47 -130 4 -14 2 -20 -8 -20 -8 0 -26 -18 -41 -40 -22 -33 -24
-41 -12 -46 14 -5 14 -9 1 -34 -8 -16 -20 -32 -26 -36 -8 -5 -9 -3 -4 6 4 7 9
25 11 39 3 25 2 25 -12 7 -8 -11 -14 -29 -14 -41 0 -12 -11 -32 -24 -44 -14
-13 -39 -51 -56 -85 -50 -97 -102 -189 -138 -239 -18 -26 -40 -62 -48 -80 -22
-47 -74 -128 -115 -178 -20 -24 -44 -60 -54 -79 -10 -19 -32 -53 -50 -75 -17
-22 -49 -69 -71 -105 -21 -35 -60 -87 -86 -114 -27 -27 -48 -53 -48 -57 0 -10
-263 -301 -328 -363 -29 -28 -52 -56 -52 -63 0 -7 -10 -18 -22 -24 -13 -6 -54
-46 -93 -89 -38 -43 -74 -79 -80 -79 -11 -2 -55 -36 -55 -43 0 -8 -75 -85 -87
-89 -14 -5 -137 -112 -179 -156 -17 -18 -36 -33 -42 -33 -7 0 -17 -11 -22 -24
-5 -14 -19 -30 -32 -37 -23 -12 -23 -11 2 16 36 41 -106 -64 -152 -112 -20
-21 -36 -42 -35 -48 1 -5 -26 -25 -60 -43 -35 -18 -63 -39 -63 -46 0 -12 -47
-49 -152 -117 -31 -21 -62 -47 -68 -59 -6 -11 -16 -18 -21 -14 -6 3 -23 -5
-37 -18 -15 -13 -43 -36 -62 -50 -19 -14 -57 -48 -85 -77 -27 -28 -54 -51 -60
-51 -11 0 -211 -185 -415 -383 -123 -119 -217 -240 -295 -380 -16 -29 -40 -66
-52 -82 -13 -15 -23 -33 -23 -39 0 -7 -12 -28 -26 -47 -50 -66 -144 -305 -144
-366 0 -17 -4 -33 -10 -35 -5 -1 -11 -19 -13 -38 -2 -19 -7 -42 -10 -50 -7
-16 -35 -232 -42 -314 -2 -31 2 -60 11 -78 10 -20 12 -33 5 -41 -6 -8 -6 -30
0 -60 10 -56 17 -70 29 -62 12 7 14 -7 34 -170 9 -71 19 -142 22 -157 l6 -26
-88 -4 c-49 -2 -161 2 -249 9 -88 8 -182 13 -210 12 -27 0 -131 0 -230 0
l-181 1 -38 348 c-21 191 -54 466 -73 612 -18 146 -40 319 -48 385 -8 66 -17
135 -20 153 l-6 34 -19 -23 c-12 -12 -18 -31 -15 -43 11 -48 157 -1307 168
-1441 2 -33 21 -27 -173 -54 -41 -6 -100 -11 -131 -11 l-56 0 4 62 c2 35 8
101 12 148 22 211 -2 470 -61 650 -60 187 -186 347 -372 475 -36 25 -70 45
-74 45 -4 0 -32 16 -62 36 -68 44 -272 143 -311 151 -16 3 -33 11 -39 18 -6 7
-36 23 -68 35 -31 11 -84 34 -117 50 -33 16 -105 48 -160 71 -55 24 -112 51
-127 61 -14 10 -31 18 -38 18 -7 0 -80 33 -163 74 -84 41 -162 77 -174 81 -13
3 -23 10 -23 15 0 4 -44 29 -97 55 -54 26 -100 50 -103 54 -10 13 -59 41 -72
41 -8 0 -36 15 -63 33 -74 48 -146 87 -162 87 -20 0 -64 31 -58 40 6 10 -95
70 -117 70 -9 0 -32 14 -53 30 -21 17 -46 30 -55 30 -10 0 -35 17 -56 38 -22
22 -106 83 -189 136 -490 319 -981 748 -1380 1206 -127 145 -182 212 -220 266
-41 58 -122 165 -171 227 -67 85 -266 392 -317 487 -179 335 -278 530 -298
585 -10 28 -38 98 -63 157 -48 115 -156 437 -156 466 0 10 -11 60 -24 112 -91
353 -126 900 -86 1360 6 63 15 129 21 147 6 18 9 45 8 60 -2 15 2 46 8 68 5
22 18 83 27 135 44 246 145 646 191 758 9 20 29 77 46 127 17 49 50 136 75
192 24 56 44 105 44 108 0 17 178 358 225 430 18 28 41 66 51 85 11 19 29 49
42 67 12 17 22 34 22 37 0 13 71 116 80 116 5 0 19 18 30 40 11 22 24 40 28
40 4 0 23 24 42 53 19 28 53 72 75 97 22 25 54 63 70 85 17 21 53 64 81 94 28
31 58 67 66 79 38 57 386 407 529 532 161 142 325 273 408 325 26 17 65 45 88
63 22 17 44 32 47 32 6 0 133 79 191 119 17 11 46 28 65 37 19 9 45 25 59 35
13 10 30 19 37 19 8 0 54 21 102 47 48 26 134 68 192 94 58 25 121 53 140 62
50 24 184 77 193 77 4 0 26 9 50 19 93 42 333 116 557 171 96 24 184 47 195
51 11 4 61 12 110 19 50 6 115 17 145 25 48 12 196 30 340 40 25 2 108 9 185
14 137 11 227 15 430 19 55 1 199 -5 320 -13z m942 -81 c-3 -3 -12 -4 -19 -1
-8 3 -5 6 6 6 11 1 17 -2 13 -5z m228 -46 c72 -18 121 -34 111 -36 -11 -2 -35
1 -55 6 -20 6 -82 23 -138 38 -57 14 -103 29 -103 31 0 7 32 0 185 -39z
m-2942 -5 c-7 -2 -19 -2 -25 0 -7 3 -2 5 12 5 14 0 19 -2 13 -5z m-53 -13 c-8
-5 -22 -10 -30 -10 -13 0 -13 1 0 10 8 5 22 10 30 10 13 0 13 -1 0 -10z m3202
-35 c118 -29 308 -85 323 -95 6 -4 37 -14 70 -23 33 -9 92 -28 130 -43 39 -14
88 -33 110 -40 22 -8 48 -19 57 -24 10 -5 46 -19 80 -31 71 -24 98 -41 47 -30
-38 9 -159 51 -174 61 -5 3 -37 14 -70 24 -33 10 -71 24 -85 31 -14 7 -65 25
-115 39 -49 15 -110 36 -135 47 -49 20 -220 69 -243 69 -8 0 -28 7 -43 15 -36
19 -31 19 48 0z m-3626 -94 c-3 -5 -16 -11 -28 -14 -22 -6 -22 -5 -4 8 22 17
40 20 32 6z m-206 -86 c-14 -8 -32 -14 -40 -14 -9 0 -4 6 10 14 14 8 32 14 40
14 9 0 4 -6 -10 -14z m-220 -90 c0 -2 -15 -12 -32 -20 l-33 -16 24 21 c22 19
41 26 41 15z m-190 -90 c0 -2 -10 -9 -22 -15 -22 -11 -22 -10 -4 4 21 17 26
19 26 11z m5320 -36 c0 -5 -13 -3 -30 6 -16 9 -30 17 -30 20 0 2 14 -1 30 -6
17 -6 30 -15 30 -20z m126 -61 c39 -21 78 -38 87 -38 16 0 51 -29 44 -36 -4
-5 -218 103 -232 117 -16 16 23 -1 101 -43z m244 -126 c58 -23 106 -51 139
-80 l26 -24 -32 21 c-17 12 -34 21 -38 21 -4 0 -18 9 -32 20 -14 11 -33 20
-42 20 -9 0 -29 9 -46 20 -37 25 -32 25 25 2z m-6160 -57 c0 -2 -13 -11 -30
-20 -38 -19 -40 -11 -2 9 31 17 32 18 32 11z m6470 -131 c0 -2 -9 0 -20 6 -11
6 -20 13 -20 16 0 2 9 0 20 -6 11 -6 20 -13 20 -16z m-6680 -8 c0 -2 -8 -10
-17 -17 -16 -13 -17 -12 -4 4 13 16 21 21 21 13z m6824 -75 c20 -13 41 -32 47
-42 5 -11 17 -19 25 -19 22 0 102 -48 117 -71 8 -10 31 -26 51 -34 21 -9 35
-19 32 -23 -4 -3 6 -13 22 -22 50 -26 110 -68 124 -87 22 -30 150 -143 162
-143 6 0 47 -37 91 -82 44 -46 115 -114 158 -152 43 -38 76 -71 73 -73 -12
-13 -126 75 -126 97 0 5 -37 40 -82 80 -46 39 -110 96 -143 126 -111 100 -164
142 -184 149 -11 3 -23 14 -26 24 -3 10 -18 24 -33 32 -27 13 -152 107 -162
121 -3 4 -26 18 -50 31 -43 23 -210 144 -210 152 0 5 58 -28 114 -64z m161
-51 c3 -6 -5 -10 -19 -10 -14 0 -28 5 -31 10 -3 6 5 10 19 10 14 0 28 -4 31
-10z m700 -40 c3 -5 -1 -10 -9 -10 -9 0 -16 5 -16 10 0 6 4 10 9 10 6 0 13 -4
16 -10z m6 -38 c-7 -2 -18 1 -23 6 -8 8 -4 9 13 5 13 -4 18 -8 10 -11z m-7941
4 c0 -2 -8 -10 -17 -17 -16 -13 -17 -12 -4 4 13 16 21 21 21 13z m-46 -38 c-8
-13 -52 -52 -104 -93 -19 -15 -4 3 35 39 69 66 83 77 69 54z m-144 -121 c0 -2
-10 -12 -22 -23 l-23 -19 19 23 c18 21 26 27 26 19z m-86 -89 c-10 -13 -60
-66 -110 -118 -50 -52 -135 -144 -190 -205 -54 -60 -110 -121 -124 -136 -14
-14 -46 -54 -71 -90 -26 -35 -61 -80 -78 -99 -66 -73 -195 -251 -293 -403 -58
-90 -139 -239 -216 -397 -106 -220 -122 -256 -122 -281 0 -11 -9 -32 -20 -46
-11 -14 -20 -33 -20 -42 0 -9 -6 -27 -13 -41 -7 -14 -19 -47 -27 -75 -7 -27
-23 -70 -35 -95 -12 -25 -25 -66 -29 -92 -4 -26 -11 -50 -16 -53 -5 -3 -12
-27 -16 -53 -4 -25 -13 -60 -20 -77 -6 -16 -15 -48 -18 -69 -4 -22 -15 -69
-25 -105 -18 -63 -48 -208 -70 -336 -5 -33 -17 -94 -25 -135 -24 -123 -46
-358 -45 -475 0 -60 0 -121 0 -135 -2 -273 6 -429 25 -491 9 -32 9 -189 -1
-186 -5 1 -8 10 -7 20 2 10 -1 24 -7 31 -10 12 -24 97 -39 241 -4 39 -4 101 1
140 7 49 6 79 -3 102 -6 19 -10 72 -8 126 1 50 1 154 -1 230 -2 102 1 137 10
137 8 0 10 11 6 35 -3 19 -1 49 5 67 5 18 9 52 8 75 0 23 4 44 10 48 6 4 10
25 10 48 -2 65 16 188 34 229 9 21 16 51 16 68 0 35 41 197 72 285 22 63 46
158 55 213 3 17 9 32 13 32 8 0 70 147 120 285 30 83 114 264 244 525 94 188
287 486 416 640 54 65 112 135 133 160 25 31 137 157 276 310 95 105 200 210
210 210 2 0 -4 -10 -15 -22z m8676 -280 c0 -10 3 -17 8 -17 24 4 22 -4 -9 -31
-18 -17 -35 -26 -37 -20 -2 5 -8 7 -14 4 -6 -4 -9 -1 -6 7 3 8 17 14 31 14 15
-1 27 3 27 7 0 13 -45 55 -77 72 -31 16 -53 43 -53 65 0 6 29 -10 65 -36 39
-28 65 -54 65 -65z m90 71 c0 -6 -4 -7 -10 -4 -5 3 -10 11 -10 16 0 6 5 7 10
4 6 -3 10 -11 10 -16z m66 -100 c11 -12 11 -18 1 -29 -8 -9 -8 -11 0 -6 7 3
14 -2 18 -14 3 -11 11 -20 18 -20 8 0 8 -3 0 -11 -15 -15 -34 -3 -26 16 3 11
1 13 -10 9 -10 -3 -20 5 -30 25 -21 42 -31 91 -19 91 5 0 14 12 18 28 8 24 9
21 12 -23 2 -27 10 -57 18 -66z m93 6 c16 -27 17 -35 6 -35 -16 0 -20 5 -29
43 -9 36 -2 34 23 -8z m58 -30 c0 -8 -4 -12 -9 -9 -5 3 -6 10 -3 15 9 13 12
11 12 -6z m-523 -52 c-5 -5 -12 -12 -16 -18 -4 -6 -8 -2 -8 8 0 9 7 17 17 17
9 0 12 -3 7 -7z m36 -2 c0 -6 -4 -13 -10 -16 -5 -3 -10 1 -10 9 0 9 5 16 10
16 6 0 10 -4 10 -9z m-320 -18 c-69 -23 -73 -23 -60 -8 7 8 27 15 44 14 17 0
24 -3 16 -6z m807 -220 c3 -7 -3 -9 -16 -6 -12 3 -21 10 -21 15 0 13 32 6 37
-9z m17 -29 c9 -3 14 -10 11 -15 -7 -10 -35 0 -35 12 0 11 3 11 24 3z m110
-196 c18 -85 17 -100 0 -96 -14 2 -18 15 -20 61 -2 56 11 79 20 35z m2056
-1348 c0 -5 -2 -10 -4 -10 -3 0 -8 5 -11 10 -3 6 -1 10 4 10 6 0 11 -4 11 -10z
m15 -30 c-3 -5 -11 -10 -16 -10 -6 0 -7 5 -4 10 3 6 11 10 16 10 6 0 7 -4 4
-10z m0 -30 c3 -5 1 -10 -4 -10 -6 0 -11 5 -11 10 0 6 2 10 4 10 3 0 8 -4 11
-10z m-780 -20 c-8 -13 -35 -13 -55 0 -11 7 -5 10 23 10 23 0 36 -4 32 -10z
m100 -14 c25 -11 33 -19 29 -31 -5 -11 0 -18 15 -22 28 -7 27 -21 -1 -26 -21
-3 -19 -5 12 -19 36 -17 55 -15 44 4 -4 6 -1 14 6 18 9 6 7 11 -9 19 -42 23
-20 30 35 11 79 -27 127 -59 120 -79 -2 -9 -8 -25 -11 -37 -5 -15 5 -35 35
-72 39 -50 66 -68 54 -37 -4 10 0 15 11 15 12 0 15 5 10 20 -15 48 47 -1 69
-55 22 -53 20 -62 -9 -35 -20 19 -25 20 -25 7 0 -10 -5 -14 -15 -11 -10 4 -15
0 -15 -10 0 -23 28 -76 40 -76 6 0 10 -12 10 -27 1 -16 7 -39 15 -53 8 -14 14
-37 15 -51 0 -27 25 -57 37 -46 14 15 33 -18 33 -57 0 -22 7 -66 15 -96 20
-74 19 -109 -2 -117 -10 -4 -21 -11 -26 -17 -9 -14 -37 20 -37 46 0 10 -4 18
-10 18 -5 0 -10 -5 -10 -12 0 -35 -13 11 -24 86 -10 69 -10 88 0 94 17 10 19
42 6 75 -7 16 -12 33 -12 39 0 21 -52 163 -69 188 -9 14 -23 37 -30 52 -8 15
-27 39 -42 54 -25 24 -30 25 -45 13 -13 -11 -18 -11 -21 -1 -3 6 -13 12 -24
12 -10 0 -19 4 -19 8 0 30 -183 115 -268 125 -49 6 -57 11 -47 27 8 12 90 5
134 -12 20 -7 22 -6 12 6 -7 8 -26 18 -42 21 -28 6 -51 25 -30 25 6 0 8 7 5
15 -8 20 34 20 81 1z m-818 -13 c-20 -2 -52 -2 -70 0 -17 2 0 4 38 4 39 0 53
-2 32 -4z m436 -50 c-13 -2 -33 -2 -45 0 -13 2 -3 4 22 4 25 0 35 -2 23 -4z
m-334 -9 c22 -5 21 -6 -14 -24 -29 -15 -50 -18 -99 -13 -33 3 -119 5 -190 4
-71 0 -126 2 -124 5 14 14 380 38 427 28z m131 -4 c-19 -13 -30 -13 -30 0 0 6
10 10 23 10 18 0 19 -2 7 -10z m-370 -34 c0 -11 -19 -15 -25 -6 -3 5 1 10 9
10 9 0 16 -2 16 -4z m915 -16 c3 -5 2 -10 -4 -10 -5 0 -13 5 -16 10 -3 6 -2
10 4 10 5 0 13 -4 16 -10z m881 -215 c-6 -17 -15 -31 -21 -32 -5 -1 -9 3 -7 8
1 5 -3 9 -10 9 -9 0 -9 3 -1 11 8 8 7 20 -3 45 -18 43 -18 42 9 46 30 4 48
-42 33 -87z m-366 -71 c0 -17 -12 -18 -27 -3 -17 17 -5 43 13 28 8 -6 14 -18
14 -25z m-1585 -528 c-3 -17 -7 -71 -9 -121 -7 -142 -21 -151 -19 -12 2 187 1
177 18 171 11 -5 14 -15 10 -38z m1610 -66 c5 -41 3 -65 -5 -75 -14 -16 -5
-35 16 -35 8 0 14 9 14 20 0 11 5 20 11 20 6 0 9 -6 6 -12 -2 -7 2 -20 9 -29
10 -12 11 -24 3 -53 -6 -21 -8 -45 -5 -53 6 -13 -1 -15 -40 -9 -26 3 -55 6
-65 6 -14 0 -18 11 -21 60 -3 53 -1 60 17 62 22 3 32 35 34 111 1 66 18 59 26
-13z m35 11 c0 -6 -4 -13 -10 -16 -5 -3 -10 1 -10 9 0 9 5 16 10 16 6 0 10 -4
10 -9z m-1653 -326 c-10 -19 -11 -18 -19 10 -12 44 0 67 17 35 10 -18 10 -30
2 -45z m-21 -145 c0 -29 -3 -45 -8 -38 -13 22 -9 88 6 88 1 0 1 -23 2 -50z
m1954 -180 c0 -5 -13 -10 -30 -10 -43 0 -37 -19 9 -26 37 -6 39 -8 44 -48 3
-28 -1 -47 -12 -60 -9 -10 -15 -21 -13 -25 1 -3 -9 -7 -23 -9 -18 -2 -27 2
-33 18 -7 19 -16 22 -68 22 -102 1 -114 -1 -121 -19 -10 -27 -25 -33 -40 -17
-8 8 -31 15 -51 16 -20 0 -41 2 -47 3 -5 2 -16 3 -23 4 -26 2 -5 26 29 32 31
6 32 7 12 14 -14 4 -23 15 -23 27 0 10 -4 16 -10 13 -5 -3 -10 -1 -10 4 0 6
14 11 30 11 20 0 30 -5 30 -15 0 -8 5 -15 11 -15 6 0 8 -9 4 -20 -4 -14 -2
-20 9 -20 12 0 13 6 5 32 -5 18 -9 34 -9 34 0 1 7 5 16 8 26 10 53 -12 56 -46
2 -23 9 -34 22 -36 28 -6 37 10 27 45 -7 23 -6 35 3 42 16 14 45 -4 30 -19 -6
-6 -9 -22 -6 -35 4 -24 12 -26 88 -16 14 1 25 49 12 53 -5 2 -6 18 -2 36 6 29
10 32 45 32 22 0 39 -4 39 -10z m125 -40 c3 -5 -1 -10 -10 -10 -9 0 -13 5 -10
10 3 6 8 10 10 10 2 0 7 -4 10 -10z m-768 -16 c-3 -3 -12 -4 -19 -1 -8 3 -5 6
6 6 11 1 17 -2 13 -5z m779 -15 c3 -6 0 -15 -7 -20 -10 -6 -11 -9 -1 -9 15 0
16 -56 1 -66 -6 -3 -14 -2 -18 4 -3 6 -19 16 -34 21 -16 6 -25 15 -22 21 9 14
42 12 49 -2 3 -7 5 -2 5 12 -2 40 0 50 10 50 6 0 13 -5 17 -11z m-2129 -91
c-2 -13 -4 -5 -4 17 -1 22 1 32 4 23 2 -10 2 -28 0 -40z m1381 38 c3 -3 -1
-12 -8 -21 -14 -16 -44 -15 -62 3 -16 16 -31 15 -22 0 6 -9 3 -9 -9 0 -10 8
-25 11 -39 7 -16 -5 -20 -4 -13 3 6 5 19 12 30 15 22 6 115 0 123 -7z m52 0
c0 -3 -4 -8 -10 -11 -5 -3 -10 -1 -10 4 0 6 5 11 10 11 6 0 10 -2 10 -4z m70
-6 c0 -5 -7 -7 -15 -4 -8 4 -15 8 -15 10 0 2 7 4 15 4 8 0 15 -4 15 -10z
m-12335 -358 c9 -37 18 -78 20 -92 2 -14 9 -48 17 -76 8 -28 12 -56 10 -62 -6
-20 -42 27 -42 56 0 15 -5 43 -10 62 -14 46 -40 171 -40 189 0 11 3 11 14 2 8
-7 22 -42 31 -79z m12632 -164 c-3 -8 -6 -5 -6 6 -1 11 2 17 5 13 3 -3 4 -12
1 -19z m82 8 c7 -8 11 -20 10 -28 -4 -30 2 -48 15 -48 16 0 29 -69 16 -85 -13
-16 -76 -6 -95 15 -15 16 -14 20 5 55 11 20 20 42 19 48 -6 51 8 70 30 43z
m-84 -63 c-2 -10 -4 -22 -5 -28 -1 -5 -5 -1 -9 10 -5 12 -4 23 3 27 15 10 15
10 11 -9z m-12533 -193 c6 -19 13 -42 16 -50 5 -13 3 -13 -11 -1 -9 7 -17 24
-17 37 0 13 -5 23 -12 22 -13 -3 -31 79 -22 102 4 10 11 -1 20 -30 8 -25 20
-61 26 -80z m12712 -25 c-17 -26 -38 -38 -97 -55 -17 -5 -25 -5 -22 1 4 5 13
9 20 9 8 0 34 20 57 45 45 47 73 48 42 0z m-144 5 c0 -5 -7 -7 -15 -4 -8 4
-15 8 -15 10 0 2 7 4 15 4 8 0 15 -4 15 -10z m-2050 -15 c0 -8 -4 -15 -10 -15
-5 0 -7 7 -4 15 4 8 8 15 10 15 2 0 4 -7 4 -15z m2020 -35 c8 -5 11 -10 5 -10
-5 0 -17 5 -25 10 -8 5 -10 10 -5 10 6 0 17 -5 25 -10z m-12492 -63 c-1 -12 2
-38 6 -57 7 -34 7 -35 -8 -10 -8 14 -12 28 -10 32 3 4 -2 21 -11 37 -21 42
-19 58 4 37 10 -9 19 -27 19 -39z m15 -138 c4 -16 3 -18 -9 -8 -7 6 -11 15 -8
20 8 13 11 11 17 -12z m55 -53 c-5 -37 -23 -23 -29 23 l-6 44 19 -23 c10 -13
18 -33 16 -44z m62 -144 c0 -19 104 -229 145 -292 19 -30 35 -61 35 -70 0 -14
25 -63 89 -175 l23 -40 -36 40 c-20 22 -39 51 -43 65 -3 14 -12 30 -18 35 -7
6 -18 26 -25 45 -8 19 -22 46 -32 59 -10 13 -18 29 -18 36 0 7 -16 32 -35 55
-40 47 -42 52 -19 43 12 -5 7 14 -20 68 -59 116 -96 202 -96 217 1 12 50 -72
50 -86z m9821 -669 c-12 -20 -14 -14 -5 12 4 9 9 14 11 11 3 -2 0 -13 -6 -23z
m-18 -38 c-3 -9 -8 -14 -10 -11 -3 3 -2 9 2 15 9 16 15 13 8 -4z m-9387 -78
c15 -29 48 -79 74 -112 25 -33 57 -78 70 -100 13 -22 50 -74 82 -116 32 -42
58 -80 58 -83 0 -21 -27 6 -91 89 -39 52 -76 95 -81 95 -5 0 -7 4 -4 9 7 10
-25 71 -36 71 -5 0 -8 8 -8 18 0 9 -20 39 -45 65 -25 27 -48 61 -51 75 -3 15
-7 33 -10 40 -9 30 18 -3 42 -51z m9359 24 c3 -5 1 -12 -5 -16 -5 -3 -10 1
-10 9 0 18 6 21 15 7z m-125 -211 c-6 -11 -13 -20 -16 -20 -2 0 0 9 6 20 6 11
13 20 16 20 2 0 0 -9 -6 -20z m-66 -85 c-4 -8 -8 -15 -10 -15 -2 0 -4 7 -4 15
0 8 4 15 10 15 5 0 7 -7 4 -15z m-8894 -185 c6 -11 8 -20 6 -20 -3 0 -10 9
-16 20 -6 11 -8 20 -6 20 3 0 10 -9 16 -20z m60 -28 c0 -15 -2 -15 -10 -2 -13
20 -13 33 0 25 6 -3 10 -14 10 -23z m1 -49 c13 -16 12 -17 -3 -4 -10 7 -18 15
-18 17 0 8 8 3 21 -13z m130 -106 c41 -52 45 -64 10 -32 -35 32 -57 65 -44 65
4 0 20 -15 34 -33z m-21 -22 c13 -14 21 -25 18 -25 -2 0 -15 11 -28 25 -13 14
-21 25 -18 25 2 0 15 -11 28 -25z m218 -203 c2 -7 -2 -10 -12 -6 -9 3 -16 11
-16 16 0 13 23 5 28 -10z m7997 -32 c-3 -5 -11 -10 -16 -10 -6 0 -7 5 -4 10 3
6 11 10 16 10 6 0 7 -4 4 -10z m-7934 -47 c13 -16 12 -17 -3 -4 -17 13 -22 21
-14 21 2 0 10 -8 17 -17z m7799 -113 c-20 -13 -30 -12 -30 1 0 5 4 8 9 4 5 -3
13 0 16 6 4 5 10 8 13 4 4 -3 0 -10 -8 -15z m-7565 -110 c3 -5 2 -10 -4 -10
-5 0 -13 5 -16 10 -3 6 -2 10 4 10 5 0 13 -4 16 -10z m7415 -35 c-13 -14 -26
-22 -29 -19 -3 3 5 14 18 25 33 27 39 24 11 -6z m-7309 -77 c19 -36 -9 -18
-31 20 l-22 37 22 -20 c12 -11 26 -28 31 -37z m7182 -43 c-3 -9 -8 -14 -10
-11 -3 3 -2 9 2 15 9 16 15 13 8 -4z m-33 -29 c0 -2 -8 -10 -17 -17 -16 -13
-17 -12 -4 4 13 16 21 21 21 13z m-6820 -222 c25 -27 24 -27 -22 4 -26 18 -50
37 -54 43 -12 20 51 -19 76 -47z m610 -454 c8 -5 11 -12 8 -16 -4 -3 -14 1
-23 10 -18 17 -9 21 15 6z m4181 -1367 c-10 -17 -10 -16 -11 3 0 23 13 41 18
25 2 -6 -1 -18 -7 -28z m-1661 -25 c0 -12 -6 -9 -26 13 -19 22 -19 22 4 8 12
-8 22 -17 22 -21z m1661 -95 c-12 -20 -14 -14 -5 12 4 9 9 14 11 11 3 -2 0
-13 -6 -23z m-1422 -428 c0 -23 -5 -15 -19 30 -24 75 -24 93 0 40 10 -22 19
-53 19 -70z m406 -1184 c-2 -5 10 -6 28 -2 17 4 66 4 107 0 41 -4 82 -8 90 -9
8 -1 0 -6 -18 -11 -18 -5 -30 -14 -27 -19 4 -6 3 -10 -2 -10 -4 0 -19 -3 -32
-7 -18 -4 -22 -3 -16 6 6 10 -5 12 -46 9 -57 -5 -147 5 -214 24 -37 10 -38 12
-15 18 37 10 152 11 145 1z m1174 -730 c-26 -22 -39 -26 -39 -12 0 10 52 40
59 34 2 -1 -7 -11 -20 -22z m-92 -33 c-3 -8 -6 -5 -6 6 -1 11 2 17 5 13 3 -3
4 -12 1 -19z m-1223 -33 c26 -14 31 -14 47 1 15 13 26 14 71 6 29 -6 91 -11
137 -12 53 -1 96 -7 114 -16 16 -9 47 -15 70 -14 116 5 167 0 167 -15 0 -8 3
-15 8 -15 4 0 18 -3 32 -6 24 -6 25 -6 5 10 -19 15 -15 16 64 11 45 -3 91 -10
101 -15 10 -6 31 -10 46 -10 22 0 25 2 14 15 -18 22 13 20 47 -2 24 -16 26
-16 38 1 11 15 17 16 35 6 14 -7 20 -8 16 -2 -7 12 53 32 97 32 22 0 28 -4 25
-17 -2 -11 -33 -29 -88 -51 l-85 -33 -365 -3 c-398 -3 -466 3 -568 51 -70 33
-118 73 -100 84 19 13 39 11 72 -6z m1216 -15 c-26 -20 -60 -27 -60 -11 0 4
15 13 33 19 48 15 55 14 27 -8z m406 -357 c3 -16 13 -53 21 -83 21 -77 32
-129 39 -172 6 -34 4 -39 -19 -47 -14 -6 -35 -8 -46 -6 -11 2 -23 -1 -27 -7
-4 -5 -20 -7 -39 -4 -31 6 -33 5 -39 -28 -4 -22 -2 -43 6 -56 14 -22 34 -27
40 -9 3 9 56 14 120 11 32 -2 46 -25 64 -102 7 -30 26 -109 43 -175 16 -66 44
-185 61 -265 51 -236 78 -360 100 -450 26 -113 26 -117 -11 -86 -47 40 -67 35
-67 -16 -1 -22 -7 -45 -14 -49 -7 -5 -9 -9 -4 -9 4 0 1 -11 -8 -24 -19 -30
-14 -46 24 -75 42 -30 70 -13 70 44 0 70 1 73 14 85 11 8 15 1 20 -33 9 -59
14 -89 32 -170 8 -38 17 -90 20 -115 3 -25 7 -49 10 -53 2 -5 9 -48 14 -96 18
-178 32 -250 62 -338 40 -115 45 -237 12 -282 -33 -45 -107 -75 -197 -80 -71
-4 -81 -2 -103 18 -13 12 -21 25 -19 30 3 4 -4 36 -15 71 -11 34 -31 104 -45
153 -14 50 -30 104 -35 121 -14 42 -12 54 5 48 10 -4 15 0 15 13 0 22 31 52
73 70 15 7 27 18 27 25 0 9 3 9 12 0 22 -22 29 -12 26 41 l-3 52 -37 1 c-21 1
-38 -3 -38 -7 0 -5 -7 -9 -15 -9 -8 0 -15 -4 -15 -9 0 -6 -13 -18 -29 -27 -16
-10 -32 -26 -34 -36 -9 -32 -23 -20 -35 30 -18 71 -21 123 -27 426 -3 153 -8
303 -10 335 -3 31 -7 84 -10 119 l-6 63 38 -16 c20 -9 43 -13 50 -11 8 3 13
-2 13 -12 1 -13 8 -9 30 16 55 59 32 90 -70 94 -70 3 -83 15 -94 91 -9 62 -41
115 -73 123 -44 11 -99 -12 -114 -49 -32 -75 -6 -310 76 -692 8 -38 27 -131
42 -205 l28 -135 0 -762 1 -762 -28 -10 c-15 -6 -28 -15 -28 -21 0 -17 -40
-65 -53 -65 -7 0 -12 -6 -11 -12 1 -7 2 -22 3 -32 2 -34 51 -70 51 -38 0 12 8
20 52 55 15 12 16 9 11 -30 -3 -24 -10 -48 -15 -55 -5 -7 -7 -16 -4 -22 3 -5
-10 -23 -31 -41 -56 -50 -154 -87 -253 -96 -25 -2 -82 -9 -127 -14 -151 -19
-298 -12 -355 17 -32 16 -33 21 -13 70 8 20 13 38 10 41 -3 3 0 11 6 18 5 6
12 44 15 83 5 61 2 78 -17 118 -35 72 -62 93 -122 93 -64 0 -118 -30 -147 -82
-19 -34 -21 -48 -15 -109 4 -38 16 -87 26 -109 10 -21 19 -43 19 -48 0 -4 14
-24 30 -42 17 -19 29 -38 27 -44 -2 -5 -34 -20 -73 -34 -80 -28 -206 -32 -385
-12 -230 25 -338 93 -413 261 -26 58 -44 189 -71 509 -3 30 -9 102 -15 160 -5
58 -11 136 -12 174 l-3 68 99 24 c55 14 105 29 111 34 6 5 39 16 72 24 62 14
153 54 153 66 0 4 24 15 53 24 90 29 120 49 154 100 30 46 31 51 17 77 -7 15
-14 44 -14 63 0 19 -4 37 -9 40 -5 3 -8 14 -6 24 13 62 13 142 2 154 -18 19
-40 75 -35 90 3 7 -1 27 -9 45 -19 48 -16 62 17 81 33 19 38 43 15 62 -16 14
-122 9 -147 -6 -7 -5 -30 -10 -51 -11 -21 -2 -53 -10 -71 -18 -45 -22 -130
-26 -156 -8 -11 8 -24 11 -30 8 -17 -11 -86 14 -109 39 -19 20 -30 24 -53 19
-34 -7 -52 11 -38 38 9 15 26 81 36 137 2 12 6 33 9 47 22 105 32 196 23 202
-6 3 -7 15 -3 27 14 49 17 62 19 91 1 17 6 41 10 54 6 16 5 21 -3 17 -8 -5
-10 4 -5 32 8 50 -17 130 -51 162 -36 34 -114 39 -154 11 -20 -15 -31 -31 -31
-47 0 -13 -3 -24 -7 -24 -11 0 -19 -282 -15 -519 l3 -194 -24 16 c-13 8 -34
13 -48 10 -30 -6 -95 10 -91 22 9 20 -29 26 -58 8 -24 -14 -30 -24 -30 -50 0
-27 4 -33 21 -33 12 0 35 -6 52 -14 68 -29 97 -38 111 -33 8 3 20 -1 27 -9 15
-18 29 -2 29 34 0 42 17 22 27 -33 7 -39 6 -80 -5 -152 -10 -72 -12 -142 -7
-263 12 -272 13 -256 -14 -284 -24 -25 -28 -26 -148 -26 l-123 0 -20 32 c-18
29 -19 49 -15 297 2 146 6 273 9 281 3 8 10 60 16 115 6 55 17 152 26 215 8
63 17 143 20 177 3 34 9 74 13 89 7 26 7 26 25 -14 16 -35 23 -41 47 -39 17 1
31 9 34 19 7 22 65 93 75 93 19 0 22 16 10 45 -19 45 -70 69 -70 32 0 -19 -84
-102 -103 -102 -6 0 -7 26 -3 73 4 39 9 86 10 102 5 47 18 148 23 170 2 11 8
63 14 115 5 52 14 119 19 149 5 29 8 56 6 60 -2 3 0 33 5 66 17 109 30 219 34
282 2 34 7 77 11 95 11 51 13 67 20 151 3 42 9 77 13 77 4 0 43 -27 87 -60 43
-34 93 -67 109 -75 17 -8 42 -23 56 -32 14 -10 59 -40 100 -67 41 -27 78 -55
82 -62 4 -8 15 -14 22 -14 8 0 15 -3 15 -8 0 -4 17 -16 38 -27 97 -49 273
-174 313 -223 9 -11 21 -21 25 -23 21 -9 99 -125 146 -216 51 -100 69 -124
102 -136 14 -6 16 -10 7 -21 -14 -16 3 -92 23 -111 14 -12 14 -95 1 -115 -13
-20 -15 -152 -3 -167 5 -7 7 -17 3 -23 -3 -5 -1 -10 5 -10 6 0 2 -17 -10 -40
-20 -39 -20 -39 -1 -57 18 -17 18 -20 4 -53 -18 -41 -24 -100 -10 -100 5 0 4
-7 -3 -15 -14 -16 -25 -122 -24 -236 l0 -77 -38 25 c-31 21 -41 23 -53 13 -8
-7 -13 -23 -11 -36 3 -13 0 -26 -5 -29 -5 -4 -9 -13 -9 -22 0 -9 -7 -21 -16
-28 -15 -10 -15 -14 -1 -42 22 -42 67 -59 67 -25 0 9 11 34 25 54 14 20 25 44
25 52 0 9 4 16 9 16 9 0 16 -59 27 -215 3 -49 10 -94 15 -99 5 -6 9 -24 9 -42
0 -17 4 -44 10 -60 5 -16 12 -49 14 -74 7 -70 42 -185 57 -187 44 -8 49 33 29
207 -7 58 -14 116 -15 130 -1 14 -7 37 -13 52 -6 14 -10 73 -10 130 1 57 -1
139 -6 183 -4 46 -2 118 4 170 6 50 13 114 16 144 3 29 11 70 18 90 8 24 9 47
4 66 -5 17 -6 55 -3 85 3 30 1 61 -3 68 -5 7 -6 34 -2 60 25 159 26 197 9 218
-6 7 -13 58 -15 114 l-5 101 48 72 c77 116 243 287 398 407 83 64 322 230 370
256 11 6 49 28 85 48 36 21 69 38 75 39 5 1 26 12 45 24 45 28 48 28 56 -4z
m-1031 -203 c-3 -5 -12 -10 -20 -10 -8 0 -18 -6 -22 -12 -4 -7 -36 -32 -71
-56 l-62 -43 -65 38 c-35 21 -65 41 -65 44 0 4 39 10 88 13 48 4 112 13 142
21 69 17 83 18 75 5z m908 -990 l5 -75 -13 65 c-8 36 -14 90 -13 120 l1 55 8
-45 c4 -25 10 -79 12 -120z m-1971 57 c2 -12 -1 -74 -8 -137 -7 -63 -13 -119
-14 -125 0 -5 -4 -3 -10 5 -8 14 -5 177 6 248 6 37 20 42 26 9z m1985 -199
c-3 -8 -6 -5 -6 6 -1 11 2 17 5 13 3 -3 4 -12 1 -19z m-1897 -594 c0 -13 57
-38 78 -35 8 1 20 -3 29 -10 12 -10 16 -10 23 1 7 12 12 11 28 -3 25 -23 131
-16 187 13 57 29 71 26 86 -17 6 -21 16 -43 21 -50 5 -7 7 -17 3 -23 -9 -14
17 -70 32 -70 7 0 10 -7 6 -16 -3 -9 0 -20 7 -24 10 -6 11 -12 3 -22 -14 -17
-15 -78 -1 -78 6 0 6 -6 -2 -15 -12 -15 -3 -37 24 -56 4 -4 3 -10 -3 -13 -17
-11 -13 -44 6 -55 15 -8 14 -10 -12 -17 -17 -3 -38 -14 -48 -22 -10 -9 -30
-18 -45 -20 -15 -2 -36 -11 -47 -21 -23 -21 -92 -54 -150 -71 -22 -7 -69 -26
-104 -42 -35 -16 -73 -31 -85 -32 -12 -1 -31 -8 -43 -14 -12 -7 -24 -9 -26 -5
-6 9 -14 134 -22 318 -6 135 -22 334 -30 372 -4 16 1 24 23 31 35 12 62 11 62
-4z m2039 -1562 c-5 -109 -11 -168 -19 -175 -10 -10 -11 4 -4 63 4 41 9 125
10 185 4 156 5 168 13 125 4 -19 4 -109 0 -198z m-1018 -64 c20 -37 12 -178
-11 -178 -11 0 -45 77 -53 118 -5 22 -2 41 9 58 20 30 40 31 55 2z m-124 -434
c-3 -3 -12 -4 -19 -1 -8 3 -5 6 6 6 11 1 17 -2 13 -5z"/>
<path d="M11610 18256 c0 -7 7 -13 15 -13 8 0 15 4 15 8 0 4 -7 9 -15 13 -9 3
-15 0 -15 -8z"/>
<path d="M11900 18131 c0 -5 5 -13 10 -16 6 -3 10 -2 10 4 0 5 -4 13 -10 16
-5 3 -10 2 -10 -4z"/>
<path d="M11947 18086 c-8 -20 43 -63 96 -82 9 -3 17 -11 17 -16 0 -5 6 -8 13
-6 18 4 107 -25 107 -35 0 -5 6 -7 13 -4 6 2 28 -4 47 -15 19 -10 43 -18 53
-18 11 0 41 -11 67 -24 35 -18 51 -21 59 -13 16 16 14 32 -9 52 -11 10 -20 14
-20 10 0 -4 -8 0 -19 9 -10 9 -36 20 -57 23 -22 3 -43 9 -49 13 -5 4 -53 22
-105 40 -52 19 -106 40 -120 47 -14 7 -31 13 -37 13 -7 0 -13 5 -13 10 0 15
-37 12 -43 -4z"/>
<path d="M12447 17860 c-7 -27 -1 -39 12 -24 5 5 5 18 2 28 -7 18 -8 18 -14
-4z"/>
<path d="M12906 17515 c-8 -22 4 -47 21 -41 8 4 11 1 8 -5 -4 -6 3 -13 15 -16
12 -3 19 -11 16 -19 -3 -7 1 -18 9 -24 10 -8 14 -8 18 2 2 7 3 5 1 -5 -3 -21
29 -57 51 -57 8 0 15 -4 15 -9 0 -5 30 -14 66 -21 57 -11 68 -11 81 3 14 13
13 16 -8 27 -12 7 -39 15 -58 17 -20 3 -43 12 -52 22 -35 34 -60 51 -69 46 -6
-4 -10 4 -10 16 0 13 -12 35 -26 51 -22 22 -30 25 -47 17 -14 -8 -18 -8 -13 0
4 6 3 11 -2 11 -6 0 -12 -7 -16 -15z"/>
<path d="M13246 17231 c-13 -20 16 -141 34 -141 4 0 15 8 24 19 17 19 15 32
-23 110 -9 19 -27 25 -35 12z"/>
<path d="M13783 16504 c-17 -13 -17 -15 10 -35 15 -12 24 -26 20 -32 -3 -7 -4
-10 0 -7 3 3 6 10 7 15 1 6 6 15 12 22 6 8 3 18 -11 32 -17 17 -22 18 -38 5z"/>
<path d="M14082 15476 c-11 -43 -4 -63 21 -53 23 9 28 59 8 78 -16 16 -18 14
-29 -25z"/>
<path d="M14048 15313 c-29 -180 -8 -437 49 -598 19 -55 39 -114 44 -131 5
-17 18 -39 29 -49 11 -10 20 -23 20 -30 0 -6 15 -29 34 -51 34 -39 34 -39 55
-20 l21 19 -22 36 c-11 20 -34 53 -49 73 -34 43 -101 240 -120 348 -11 67 -15
326 -7 450 3 39 0 45 -18 48 -19 3 -22 -5 -36 -95z"/>
<path d="M14438 14289 c-10 -5 -18 -14 -18 -19 0 -22 55 -88 88 -105 20 -11
39 -23 42 -26 3 -4 28 -14 55 -22 l50 -14 -4 -87 c-3 -78 -1 -86 15 -87 15 0
16 -2 4 -7 -26 -12 -21 -42 7 -42 22 0 25 4 21 25 -3 14 -2 25 2 25 9 0 20
163 13 189 -5 19 -46 47 -78 53 -11 1 -22 5 -25 8 -3 3 -27 16 -53 30 -31 16
-54 36 -64 58 -16 34 -27 38 -55 21z"/>
<path d="M14347 12673 c-10 -9 -8 -33 2 -33 5 0 11 9 14 20 5 20 -3 26 -16 13z"/>
<path d="M8510 12580 c-24 -8 -24 -8 5 -8 17 0 39 3 50 8 18 8 18 9 -5 8 -14
0 -36 -4 -50 -8z"/>
<path d="M10706 12303 c-21 -69 -48 -250 -30 -208 12 30 50 225 43 225 -4 0
-10 -8 -13 -17z"/>
<path d="M14200 12310 c0 -5 5 -10 10 -10 6 0 10 5 10 10 0 6 -4 10 -10 10 -5
0 -10 -4 -10 -10z"/>
<path d="M14131 12234 c-12 -15 -21 -33 -21 -40 0 -7 -8 -21 -19 -31 -10 -10
-26 -44 -35 -75 -9 -31 -21 -60 -26 -63 -6 -3 -10 -17 -10 -31 0 -13 -4 -24
-10 -24 -5 0 -10 -6 -10 -12 0 -12 -14 -52 -58 -163 -9 -22 -24 -51 -34 -64
-17 -22 -17 -26 -3 -40 19 -20 43 -7 65 35 8 15 20 34 27 41 7 8 15 30 18 51
3 20 10 44 16 52 5 8 12 22 15 30 3 8 19 48 35 88 16 40 27 77 24 82 -4 6 -1
10 4 10 6 0 11 8 11 19 0 10 7 24 15 31 8 7 17 27 21 45 3 19 12 36 20 39 19
7 18 32 -2 40 -22 8 -20 9 -43 -20z"/>
<path d="M10605 11903 c-4 -21 -9 -51 -12 -68 -3 -19 -2 -26 5 -20 13 14 32
73 32 101 0 38 -18 28 -25 -13z"/>
<path d="M13855 11651 c6 -11 45 -10 45 1 0 4 -12 8 -26 8 -14 0 -23 -4 -19
-9z"/>
<path d="M10547 11570 c-15 -33 -25 -65 -22 -71 9 -13 -13 -174 -28 -214 -7
-16 -10 -51 -9 -77 2 -27 -1 -48 -6 -48 -6 0 -8 -17 -5 -40 3 -22 2 -40 -3
-40 -5 0 -9 -29 -9 -63 0 -35 -5 -75 -12 -88 -15 -31 -35 -344 -26 -431 6 -65
6 -67 20 -42 9 18 14 71 16 159 1 73 5 131 8 129 12 -7 34 198 32 286 -2 58 1
80 7 70 9 -13 10 -13 10 0 0 8 7 60 15 115 23 148 25 165 30 228 2 33 9 84 15
115 12 67 12 72 3 72 -5 0 -21 -27 -36 -60z m10 -52 c-3 -8 -6 -5 -6 6 -1 11
2 17 5 13 3 -3 4 -12 1 -19z m-10 -60 c-3 -8 -6 -5 -6 6 -1 11 2 17 5 13 3 -3
4 -12 1 -19z m-10 -60 c-3 -7 -5 -2 -5 12 0 14 2 19 5 13 2 -7 2 -19 0 -25z
m-30 -220 c-3 -7 -5 -2 -5 12 0 14 2 19 5 13 2 -7 2 -19 0 -25z m-60 -700 c-3
-7 -5 -2 -5 12 0 14 2 19 5 13 2 -7 2 -19 0 -25z"/>
<path d="M13415 11120 c4 -6 -1 -7 -11 -3 -14 5 -16 2 -12 -15 4 -14 2 -19 -7
-15 -8 2 -18 -5 -24 -16 -7 -11 -17 -18 -26 -15 -8 3 -20 -3 -27 -15 -7 -12
-21 -21 -31 -21 -10 0 -27 -15 -38 -34 -11 -19 -26 -37 -34 -40 -8 -3 -15 -14
-15 -24 0 -10 -9 -35 -20 -56 -18 -36 -22 -84 -7 -78 4 1 11 2 16 2 6 0 24 29
41 65 17 36 38 65 46 65 7 0 14 6 14 13 0 13 56 67 69 67 4 0 25 14 48 30 41
30 59 70 40 89 -14 14 -30 14 -22 1z"/>
<path d="M12995 10753 c-61 -6 -106 -24 -103 -40 5 -27 34 -39 60 -25 13 7 33
14 46 15 12 0 22 4 22 8 0 3 10 10 22 16 22 10 22 10 3 19 -11 6 -33 8 -50 7z"/>
<path d="M10406 10448 c-23 -79 -49 -593 -41 -798 10 -232 13 -273 21 -305 7
-29 8 -28 21 25 8 36 13 125 13 260 1 113 5 266 9 340 5 74 9 207 10 294 1
146 0 158 -15 140 -14 -18 -15 -17 -9 19 5 34 -1 53 -9 25z m-15 -1004 c-6
-28 -9 -32 -10 -14 -1 30 11 79 16 64 2 -6 -1 -28 -6 -50z"/>
<path d="M9550 8756 c0 -7 7 -19 15 -26 16 -13 20 -3 9 24 -8 20 -24 21 -24 2z"/>
<path d="M9575 8640 c3 -25 8 -71 12 -103 5 -52 16 -77 29 -64 7 7 -26 179
-38 197 -6 10 -7 1 -3 -30z"/>
<path d="M16371 14474 c0 -11 3 -14 6 -6 3 7 2 16 -1 19 -3 4 -6 -2 -5 -13z"/>
<path d="M16420 14451 c0 -11 5 -23 10 -26 6 -4 10 5 10 19 0 14 -4 26 -10 26
-5 0 -10 -9 -10 -19z"/>
<path d="M16382 14420 c0 -14 2 -19 5 -12 2 6 2 18 0 25 -3 6 -5 1 -5 -13z"/>
<path d="M16462 13965 c0 -16 2 -22 5 -12 2 9 2 23 0 30 -3 6 -5 -1 -5 -18z"/>
<path d="M16713 13433 c9 -2 23 -2 30 0 6 3 -1 5 -18 5 -16 0 -22 -2 -12 -5z"/>
<path d="M16710 13400 c0 -5 5 -10 10 -10 6 0 10 5 10 10 0 6 -4 10 -10 10 -5
0 -10 -4 -10 -10z"/>
<path d="M16718 13353 c7 -3 16 -2 19 1 4 3 -2 6 -13 5 -11 0 -14 -3 -6 -6z"/>
<path d="M9938 5393 c7 -3 16 -2 19 1 4 3 -2 6 -13 5 -11 0 -14 -3 -6 -6z"/>
<path d="M9118 4808 c-22 -8 -28 -16 -29 -41 -1 -48 -7 -71 -18 -75 -6 -2 -11
-12 -11 -23 0 -10 -4 -19 -9 -19 -16 0 -40 -74 -27 -82 6 -5 2 -8 -11 -8 -12
0 -25 -5 -29 -11 -7 -13 34 -57 56 -59 33 -5 50 1 50 15 0 9 7 18 15 21 13 5
32 67 27 88 -2 4 1 13 6 20 5 6 15 29 22 51 7 22 18 45 25 50 41 34 -13 92
-67 73z"/>
<path d="M10875 4798 c-8 -18 -6 -35 12 -76 13 -29 21 -64 19 -77 -3 -15 1
-26 11 -29 22 -9 66 -7 83 4 13 8 13 13 2 30 -11 18 -19 58 -25 133 -4 41 -85
53 -102 15z"/>
<path d="M11140 4476 c-6 -6 -10 -16 -10 -22 0 -7 -9 -16 -21 -19 -13 -5 -19
-13 -16 -24 3 -12 -2 -17 -17 -17 -18 1 -21 -4 -19 -34 1 -19 9 -40 19 -47 23
-16 34 -17 34 0 0 7 10 19 22 27 12 8 32 24 43 36 12 11 27 18 33 16 15 -5 15
12 2 60 -9 32 -15 37 -36 36 -13 -1 -29 -7 -34 -12z"/>
<path d="M9326 4448 c-12 -28 -12 -35 2 -56 13 -20 20 -23 51 -16 20 3 43 6
51 5 8 -1 25 -2 38 -2 12 -1 22 -5 22 -9 0 -5 20 -8 44 -7 24 0 52 -5 61 -13
23 -19 36 -2 42 54 5 38 3 46 -11 46 -9 0 -18 -1 -19 -2 -2 -2 -11 3 -19 9
-10 9 -43 12 -107 9 -50 -2 -94 0 -97 5 -13 21 -45 8 -58 -23z"/>
<path d="M10557 4442 c-31 -33 -37 -75 -9 -71 25 4 82 -11 82 -22 0 -5 6 -9
14 -9 8 0 22 -7 31 -17 15 -15 19 -13 53 20 l37 37 -23 22 c-12 12 -32 23 -44
24 -38 2 -82 16 -99 30 -13 12 -19 10 -42 -14z"/>
<path d="M8977 4281 c-30 -36 -27 -86 5 -78 22 6 80 -11 89 -26 4 -5 20 -10
37 -11 17 0 28 -4 25 -9 -2 -4 3 -10 11 -13 17 -6 50 26 61 58 7 21 -28 58
-55 58 -32 0 -114 24 -128 37 -18 17 -17 17 -45 -16z"/>
<path d="M9604 4156 c-27 -8 -33 -16 -37 -49 -3 -21 -12 -46 -21 -56 -9 -10
-16 -25 -16 -33 0 -9 -7 -19 -16 -22 -8 -3 -13 -10 -9 -15 3 -5 1 -12 -4 -15
-5 -3 -12 -18 -16 -33 -3 -16 -13 -36 -22 -45 -14 -15 -12 -19 18 -37 44 -27
65 -26 80 2 7 12 16 24 20 28 5 3 13 29 19 59 6 30 15 59 20 64 6 6 10 18 10
27 0 10 14 31 30 46 l30 28 -27 31 c-25 28 -31 29 -59 20z"/>
<path d="M10406 4093 l-26 -14 20 -27 c14 -20 19 -41 17 -82 -1 -30 -5 -60 -9
-66 -4 -6 7 -18 28 -27 46 -22 74 -22 74 1 0 10 5 23 10 28 8 8 7 20 -1 40 -7
16 -13 36 -15 44 -2 14 -12 87 -13 101 -2 14 -61 15 -85 2z"/>
<path d="M10879 4059 c-9 -9 -28 -20 -41 -24 -12 -4 -26 -12 -29 -18 -4 -5
-17 -10 -30 -11 -21 -1 -24 -7 -27 -41 -2 -32 1 -43 19 -54 19 -11 24 -11 33
1 14 19 76 51 84 44 3 -3 16 1 30 10 13 9 33 14 43 11 16 -4 19 0 19 30 0 52
-15 72 -52 71 -17 -1 -39 -9 -49 -19z"/>
<path d="M9909 3843 c-15 -13 -31 -23 -37 -23 -5 0 -21 -9 -35 -20 -14 -11
-31 -18 -39 -15 -45 17 -47 -71 -2 -96 23 -12 27 -10 49 16 14 15 25 25 25 22
0 -3 27 5 61 18 33 13 67 21 75 18 8 -3 14 1 15 8 2 27 -3 64 -11 79 -13 23
-70 19 -101 -7z"/>
<path d="M10650 3610 c0 -30 -14 -62 -37 -88 -13 -13 -17 -28 -14 -45 1 -5 -2
-6 -7 -3 -4 2 -14 1 -21 -3 -10 -6 -5 -17 19 -45 18 -20 37 -36 44 -36 20 0
56 47 56 73 0 14 7 32 15 41 8 8 15 24 15 35 0 12 5 21 10 21 6 0 13 7 17 16
8 23 -35 64 -69 64 -25 0 -28 -4 -28 -30z"/>
<path d="M10883 3508 c-49 -16 -50 -45 -2 -86 21 -18 37 -37 34 -42 -3 -5 5
-17 18 -27 12 -10 21 -26 19 -35 -3 -16 0 -16 43 -3 26 7 48 15 50 17 9 10
-10 70 -25 78 -28 15 -78 68 -85 90 -7 22 -7 22 -52 8z"/>
<path d="M9421 3437 c-40 -29 -42 -62 -2 -70 15 -3 47 -23 69 -45 43 -41 52
-42 98 0 18 16 20 23 10 44 -6 13 -15 24 -19 24 -19 0 -106 43 -102 50 12 19
-25 16 -54 -3z"/>
<path d="M10378 3353 c-17 -21 -68 -45 -83 -39 -29 11 -55 -65 -31 -89 16 -17
36 -20 36 -6 0 5 12 12 28 16 15 4 36 9 47 12 11 3 32 7 48 10 29 6 34 27 18
82 -8 28 -45 36 -63 14z"/>
<path d="M8808 3036 c-23 -17 -22 -22 2 -49 11 -12 18 -27 16 -34 -3 -7 -1
-15 3 -18 5 -3 7 -13 4 -24 -2 -10 2 -25 10 -33 10 -10 12 -19 5 -31 -8 -14
-4 -17 24 -17 18 0 43 3 55 6 29 8 36 49 12 70 -11 10 -19 22 -19 28 0 6 -6
23 -14 38 -8 15 -12 36 -9 46 4 15 -2 21 -27 26 -42 8 -42 8 -62 -8z"/>
<path d="M10521 2994 l-24 -17 22 -16 c12 -9 23 -27 24 -39 1 -12 4 -22 8 -22
3 0 6 -14 5 -31 -1 -28 3 -33 37 -45 41 -14 71 -9 63 12 -3 7 -1 16 4 19 11 7
-28 94 -48 110 -7 6 -12 17 -10 25 5 22 -52 24 -81 4z"/>
<path d="M11042 2882 c-12 -2 -27 -13 -34 -25 -6 -12 -29 -39 -51 -59 -31 -30
-38 -43 -33 -62 11 -44 66 -79 66 -42 0 8 11 27 25 42 14 15 25 23 25 19 0 -5
10 1 23 12 12 11 27 22 34 24 8 3 8 14 -2 43 -16 47 -23 53 -53 48z"/>
<path d="M8953 2711 c-10 -10 -30 -33 -45 -50 -15 -17 -35 -31 -44 -31 -14 0
-16 -7 -11 -41 5 -41 19 -59 45 -59 6 0 12 6 12 13 0 6 16 23 36 37 19 14 41
31 49 38 7 6 19 12 26 12 16 0 4 58 -18 82 -20 23 -29 23 -50 -1z"/>
<path d="M11709 2595 c-17 -17 -109 -37 -109 -24 0 19 -16 7 -34 -25 -18 -34
-19 -71 -1 -71 6 0 16 -4 22 -8 13 -8 98 16 119 34 7 5 18 8 25 7 20 -4 25 75
6 90 -10 9 -17 8 -28 -3z"/>
<path d="M10532 2578 c-6 -6 -22 -13 -34 -15 -12 -2 -28 -9 -36 -16 -9 -6 -25
-12 -36 -12 -18 0 -21 -6 -20 -37 1 -36 22 -68 43 -68 6 0 11 6 11 14 0 17 21
26 75 32 22 3 42 7 44 10 2 2 10 -1 18 -7 10 -9 16 -4 28 26 20 47 12 71 -27
79 -43 8 -52 8 -66 -6z"/>
<path d="M9935 2399 c-4 -6 -4 -13 -1 -16 7 -7 -32 -83 -44 -83 -9 0 -26 -39
-22 -52 1 -5 -7 -8 -19 -8 -20 0 -20 -1 -2 -31 25 -43 49 -54 80 -38 20 11 27
23 39 69 6 26 39 87 50 93 20 12 17 31 -9 55 -25 23 -61 29 -72 11z"/>
<path d="M10831 2213 c-13 -3 -30 -11 -38 -18 -17 -17 -17 -45 0 -45 15 0 50
-67 42 -80 -3 -4 4 -18 14 -31 14 -17 17 -29 10 -41 -9 -16 -5 -18 28 -18 48
0 89 26 73 45 -8 9 -8 15 -1 20 7 4 1 17 -14 33 -14 15 -28 37 -31 49 -3 12
-12 24 -21 27 -8 3 -13 14 -12 23 4 44 2 46 -50 36z"/>
<path d="M9415 2060 c-16 -11 -30 -30 -32 -43 -3 -20 2 -25 24 -30 16 -3 50
-26 76 -52 53 -50 68 -52 106 -11 22 23 22 25 6 50 -10 14 -23 26 -30 26 -7 0
-24 9 -38 20 -14 11 -32 20 -41 20 -9 0 -16 6 -16 14 0 23 -25 25 -55 6z"/>
<path d="M10217 2041 c-14 -24 -15 -34 -6 -55 10 -21 18 -25 58 -25 71 0 81
-2 81 -12 0 -5 13 -9 28 -9 16 0 37 -7 48 -15 28 -21 33 -19 54 27 20 46 17
68 -10 68 -10 0 -20 4 -22 9 -1 4 -41 11 -88 15 -47 4 -86 11 -88 16 -7 20
-38 9 -55 -19z"/>
<path d="M9812 1810 c-37 -16 -37 -36 3 -75 20 -21 34 -39 31 -43 -3 -3 4 -14
17 -26 12 -12 21 -29 19 -38 -3 -14 1 -16 26 -9 53 16 73 31 70 54 -3 24 -21
47 -35 47 -13 0 -58 62 -58 80 0 18 -40 23 -73 10z"/>
<path d="M10680 1640 c0 -31 -24 -83 -33 -73 -4 3 -10 -8 -13 -25 -4 -18 -13
-32 -20 -32 -21 0 -17 -12 17 -47 35 -38 33 -38 64 -17 15 10 25 26 25 41 0
13 5 34 12 46 7 12 13 28 14 34 1 7 10 20 19 29 15 16 15 19 -9 42 -13 14 -36
26 -50 28 -22 2 -26 -1 -26 -26z"/>
<path d="M9553 1423 c-7 -2 -13 -13 -13 -23 0 -9 -7 -23 -15 -30 -8 -7 -15
-19 -15 -26 0 -8 -10 -14 -21 -14 -20 0 -21 -4 -15 -42 4 -23 12 -46 19 -50
18 -12 37 -9 37 5 0 6 18 27 40 46 22 19 40 40 40 47 0 7 7 14 15 16 13 2 11
10 -10 41 -25 36 -36 41 -62 30z"/>
<path d="M15250 15950 c0 -4 9 -10 20 -13 11 -3 20 -2 20 3 0 4 -9 10 -20 13
-11 3 -20 2 -20 -3z"/>
<path d="M15585 15851 c-3 -5 -1 -12 5 -16 5 -3 10 1 10 9 0 18 -6 21 -15 7z"/>
<path d="M16075 15843 c-11 -2 -27 -7 -35 -9 -36 -13 -263 -20 -315 -10 -65
12 -70 12 -73 -10 -2 -16 5 -23 35 -32 64 -19 126 -31 134 -26 4 2 51 6 105 9
55 3 115 8 134 11 19 4 64 7 100 8 51 1 65 4 68 17 1 9 -4 21 -12 28 -15 13
-106 22 -141 14z"/>
<path d="M16260 15787 c0 -15 4 -27 9 -27 17 0 19 15 5 35 -13 18 -14 18 -14
-8z"/>
<path d="M17170 13890 c-12 -7 -12 -12 4 -29 11 -12 25 -21 33 -21 23 0 27 30
7 45 -23 17 -25 17 -44 5z"/>
<path d="M17226 13835 c-14 -15 -14 -19 9 -53 13 -20 27 -50 31 -67 4 -16 11
-36 17 -43 26 -33 43 -366 21 -422 -3 -8 -7 -47 -10 -86 -4 -68 -3 -72 19 -78
12 -3 25 -6 29 -6 28 0 43 422 19 535 -14 65 -89 227 -107 233 -7 1 -19 -4
-28 -13z"/>
<path d="M3636 13562 c-3 -5 -5 -31 -4 -60 0 -28 -3 -56 -7 -61 -3 -6 -2 -11
3 -11 5 0 8 -11 7 -25 -2 -16 2 -25 10 -25 18 0 45 89 45 147 0 39 -2 43 -24
43 -14 0 -27 -4 -30 -8z"/>
<path d="M3634 13238 c6 -26 21 -54 53 -99 18 -26 33 -52 33 -59 0 -19 34
-115 42 -118 4 -2 3 -13 -3 -25 -6 -13 -7 -44 -2 -77 6 -43 13 -57 31 -66 17
-8 20 -13 10 -17 -7 -3 -4 -6 9 -6 12 -1 25 4 28 9 3 6 2 10 -3 10 -6 0 -8 9
-5 20 4 14 0 20 -11 20 -14 0 -14 3 -4 20 9 15 10 22 1 31 -7 7 -9 26 -6 47 4
25 3 33 -5 28 -15 -9 -15 -3 -1 27 8 18 7 32 -7 63 -10 21 -18 47 -19 56 -1
10 -16 33 -34 53 -17 20 -31 39 -31 43 0 5 -9 18 -20 30 -22 24 -60 30 -56 10z"/>
<path d="M16210 12436 c0 -17 -59 -63 -94 -72 -23 -5 -25 -10 -23 -46 3 -29
-1 -42 -14 -48 -34 -18 -58 -195 -30 -223 6 -6 11 -21 11 -34 0 -13 5 -23 10
-23 6 0 19 -9 30 -20 11 -11 20 -17 20 -14 0 4 7 1 15 -6 9 -7 18 -10 22 -6 3
3 13 0 22 -8 14 -13 48 -22 61 -16 3 1 19 4 35 6 45 7 68 21 92 59 36 55 37
77 8 134 -14 29 -23 56 -20 62 7 11 -13 79 -24 79 -11 0 -34 100 -40 175 -1
20 -81 21 -81 1z m20 -141 c7 -32 6 -38 -11 -42 -13 -4 -16 -9 -10 -17 5 -6 9
-15 9 -19 0 -5 11 -21 24 -35 21 -24 22 -30 11 -52 -11 -23 -10 -26 15 -33 15
-5 33 -10 40 -13 9 -3 -2 -18 -29 -44 -38 -36 -44 -38 -59 -25 -9 8 -25 15
-36 15 -28 0 -53 21 -55 45 -5 50 3 78 28 102 26 27 26 27 9 57 -11 20 -14 32
-7 34 6 2 11 11 11 21 0 9 7 27 16 40 20 28 32 18 44 -34z m-100 -95 c-5 -9
-16 -23 -25 -30 -13 -11 -15 -10 -9 6 14 44 28 64 35 52 4 -6 4 -19 -1 -28z
m-30 -90 c0 -5 -2 -10 -4 -10 -3 0 -8 5 -11 10 -3 6 -1 10 4 10 6 0 11 -4 11
-10z m260 -61 c0 -6 -11 -25 -25 -43 -34 -44 -103 -57 -142 -26 -20 15 -22 20
-9 20 9 0 19 -7 23 -16 10 -26 53 -7 96 41 37 41 57 49 57 24z"/>
<path d="M16559 12057 c-16 -31 -15 -35 5 -72 12 -22 22 -49 21 -60 0 -11 4
-25 8 -32 5 -7 6 -21 2 -33 -3 -11 -2 -20 3 -20 5 0 7 -11 5 -23 -3 -14 2 -31
11 -40 9 -9 12 -18 7 -21 -5 -3 -11 -17 -13 -31 -5 -24 -3 -25 43 -25 27 0 51
5 56 13 10 15 11 107 1 107 -4 0 -5 7 -2 15 4 8 0 23 -7 32 -19 22 -45 135
-48 206 -1 13 -10 17 -38 17 -33 0 -40 -5 -54 -33z"/>
<path d="M4000 11989 c0 -18 2 -19 15 -9 8 7 15 16 15 21 0 5 -7 9 -15 9 -9 0
-15 -9 -15 -21z"/>
<path d="M4006 11921 c-10 -15 5 -68 25 -89 10 -11 15 -22 13 -25 -8 -8 44
-94 60 -100 7 -3 17 -18 20 -33 4 -15 23 -46 42 -69 19 -23 34 -47 34 -54 0
-6 5 -11 10 -11 6 0 10 -6 10 -14 0 -8 11 -23 25 -34 14 -11 25 -25 25 -31 0
-7 7 -14 15 -17 8 -4 15 -15 15 -25 0 -10 14 -32 30 -49 17 -17 30 -39 30 -49
0 -22 29 -36 43 -22 12 12 -7 72 -33 102 -11 12 -20 30 -20 39 0 9 -19 39 -42
68 -47 56 -88 118 -88 133 0 5 -5 9 -10 9 -6 0 -18 17 -28 38 -9 20 -23 41
-29 45 -7 4 -13 15 -13 22 0 8 -5 15 -10 15 -9 0 -54 88 -73 143 -7 18 -42 24
-51 8z"/>
<path d="M16263 11364 c-27 -30 -27 -32 -8 -71 8 -16 17 -43 19 -59 2 -16 6
-36 10 -45 4 -9 6 -20 5 -25 -4 -17 13 -63 27 -75 8 -6 14 -24 14 -40 0 -33
16 -37 59 -14 34 17 46 42 30 61 -6 8 -9 20 -6 27 3 8 -5 27 -19 43 -13 16
-23 36 -24 45 0 9 -7 36 -15 59 -8 23 -12 47 -8 54 17 26 12 47 -13 56 -37 15
-47 12 -71 -16z"/>
<path d="M4422 11231 c4 -13 18 -16 19 -4 0 4 -5 9 -11 12 -7 2 -11 -2 -8 -8z"/>
<path d="M16676 11140 c-17 -30 -17 -31 5 -67 24 -39 24 -39 32 -123 3 -30 10
-66 15 -80 5 -14 6 -37 1 -52 -6 -22 -4 -28 13 -34 22 -7 88 3 89 14 7 61 3
117 -9 140 -19 36 -43 125 -49 185 -5 47 -5 47 -42 47 -30 0 -40 -5 -55 -30z"/>
<path d="M4680 10882 c0 -10 22 -32 32 -32 12 0 -2 28 -18 34 -8 3 -14 2 -14
-2z"/>
<path d="M17072 10723 c-14 -17 -20 -33 -16 -42 10 -23 21 -132 14 -136 -11
-7 -11 -95 0 -95 5 0 0 -10 -12 -22 -20 -20 -20 -22 -3 -35 42 -30 116 -6 101
32 -3 9 1 18 10 22 9 3 13 12 9 21 -10 27 -24 205 -17 216 10 17 13 44 4 49
-4 3 -20 7 -37 10 -24 5 -35 1 -53 -20z"/>
<path d="M5340 10335 c13 -14 26 -23 28 -20 7 7 -29 45 -41 45 -6 0 0 -11 13
-25z"/>
<path d="M16621 9889 c-20 -26 -22 -33 -11 -59 6 -15 13 -48 14 -72 1 -23 5
-48 8 -53 4 -6 3 -17 -1 -24 -9 -15 2 -78 17 -93 5 -5 6 -24 2 -44 l-8 -34 38
0 c49 0 74 23 66 61 -3 16 -1 31 4 34 5 3 1 25 -10 50 -11 25 -20 62 -22 83
-1 20 -6 47 -11 59 -5 12 -6 30 -2 40 20 45 16 61 -16 72 -42 14 -40 15 -68
-20z"/>
<path d="M16201 8955 c-22 -32 -23 -38 -10 -61 9 -18 13 -60 11 -145 -1 -77 2
-119 9 -119 6 0 1 -12 -10 -26 -12 -15 -21 -30 -21 -35 0 -21 107 -31 111 -10
1 3 3 21 5 40 2 19 8 37 13 41 6 3 5 25 -1 55 -15 76 -22 194 -15 250 2 20 -2
32 -12 37 -35 15 -56 7 -80 -27z"/>
<path d="M16473 8586 c-22 -21 -30 -56 -16 -70 9 -9 11 -24 17 -119 2 -44 9
-84 14 -89 6 -6 8 -23 5 -38 -7 -36 7 -43 56 -30 37 10 39 12 43 57 2 31 -2
57 -14 79 -20 38 -32 172 -17 190 11 14 2 22 -39 33 -21 6 -32 3 -49 -13z"/>
<path d="M10886 7595 c-3 -8 -1 -15 4 -15 6 0 10 7 10 15 0 8 -2 15 -4 15 -2
0 -6 -7 -10 -15z"/>
<path d="M10830 7376 c0 -2 7 -7 16 -10 8 -3 12 -2 9 4 -6 10 -25 14 -25 6z"/>
<path d="M16718 7044 c-15 -30 -16 -40 -6 -74 7 -22 15 -40 18 -40 3 0 4 -39
4 -87 -1 -49 2 -97 6 -107 4 -11 0 -32 -8 -49 -17 -35 -6 -47 44 -47 37 0 62
26 59 60 -1 14 2 30 7 37 5 7 6 18 2 25 -4 6 -9 21 -10 32 -2 12 -8 55 -14 96
-6 41 -11 98 -11 127 -1 44 -4 52 -22 57 -40 11 -52 6 -69 -30z"/>
<path d="M10876 6955 c-16 -12 -17 -15 -4 -15 9 0 18 7 22 15 7 18 6 18 -18 0z"/>
<path d="M11160 6131 c0 -5 7 -15 17 -22 15 -13 15 -12 4 9 -12 23 -21 28 -21
13z"/>
<path d="M11162 5610 c-18 -29 -15 -38 4 -12 9 13 14 25 12 27 -2 2 -9 -5 -16
-15z"/>
<path d="M16083 5413 c-17 -35 -16 -60 1 -70 15 -8 40 -119 30 -134 -3 -5 2
-12 11 -15 13 -6 14 -8 3 -15 -11 -7 -10 -14 3 -38 11 -18 13 -34 8 -42 -21
-34 -11 -49 35 -49 54 0 71 17 62 64 -4 19 -2 36 3 38 5 1 -1 26 -14 53 -34
75 -48 130 -54 218 -1 13 -10 17 -38 17 -31 0 -40 -5 -50 -27z"/>
<path d="M8756 4975 c-3 -9 0 -15 9 -15 16 0 20 16 6 24 -5 3 -11 -1 -15 -9z"/>
<path d="M8700 4857 c-11 -23 -20 -56 -20 -74 0 -17 -5 -35 -10 -38 -6 -4 -10
-14 -9 -23 1 -10 0 -19 -1 -22 -1 -3 -3 -132 -4 -287 l-2 -283 28 0 c32 0 31
-4 29 145 -2 223 4 415 13 455 4 14 9 43 11 65 2 22 7 52 11 66 4 19 1 28 -11
32 -12 5 -21 -4 -35 -36z"/>
<path d="M14503 4088 c-39 -23 -42 -38 -9 -38 23 0 23 -1 23 -107 -1 -174 57
-334 178 -494 110 -147 201 -225 477 -410 98 -66 218 -153 266 -193 293 -245
504 -555 548 -804 8 -48 25 -109 38 -137 44 -94 61 -340 30 -445 -9 -30 -24
-98 -33 -150 l-18 -95 -30 65 c-64 139 -199 273 -339 337 -80 36 -219 44 -305
18 -33 -10 -59 -23 -59 -29 0 -6 18 -24 40 -39 66 -46 98 -116 124 -264 26
-151 89 -249 194 -300 51 -25 67 -28 162 -28 90 0 111 3 148 23 l43 23 -6 -68
c-3 -37 -8 -88 -10 -113 -11 -98 30 -299 55 -274 6 6 15 61 20 122 22 247 53
403 91 448 5 6 6 14 2 17 -3 4 -1 7 6 7 8 0 10 7 6 19 -3 10 -1 30 4 44 14 35
22 107 26 215 3 90 3 92 -19 92 -22 0 -23 4 -29 118 -4 64 -18 171 -32 237
-30 145 -34 288 -8 317 13 14 13 18 2 19 -8 1 -3 4 11 8 15 4 29 18 35 36 5
17 12 32 16 35 13 11 19 131 7 149 -26 42 120 179 267 251 104 51 318 121 370
122 17 0 68 -14 115 -30 251 -90 490 -51 645 106 76 77 117 161 123 256 3 44
0 81 -6 92 -10 16 -11 12 -12 -23 -1 -116 -44 -219 -129 -304 -94 -94 -209
-139 -354 -139 -81 0 -194 21 -256 48 l-36 15 30 8 c298 79 459 137 552 198
57 38 171 146 162 155 -12 12 -258 28 -364 23 -265 -12 -452 -128 -515 -318
l-16 -52 -95 -24 c-145 -38 -285 -97 -374 -158 -44 -30 -103 -71 -132 -91 -82
-57 -123 -132 -147 -268 l-12 -69 -54 94 c-144 249 -378 489 -693 710 -133 94
-272 198 -321 241 l-40 35 18 37 c49 103 44 235 -14 352 -37 76 -149 198 -256
280 l-75 58 27 14 27 14 -24 14 c-30 16 -27 17 -66 -8z m157 -181 c157 -134
222 -248 224 -387 1 -56 -4 -84 -18 -110 l-19 -35 -13 64 c-17 83 -72 197
-119 250 -21 23 -39 40 -41 38 -2 -2 18 -40 44 -84 48 -80 92 -194 92 -236 -1
-20 -5 -18 -36 18 -78 87 -154 218 -187 320 -32 98 -43 235 -18 235 3 0 45
-33 91 -73z m2879 -733 c3 -3 -15 -25 -40 -50 -85 -87 -283 -166 -574 -228
-112 -23 -135 -24 -135 -3 0 46 102 169 175 212 59 34 156 64 238 74 66 8 326
4 336 -5z m-1433 -841 c-10 -26 -18 -8 -9 23 5 21 8 24 11 11 2 -10 1 -25 -2
-34z m-510 -762 c90 -42 134 -78 155 -129 11 -24 34 -62 52 -85 19 -23 53 -71
77 -107 23 -36 57 -80 74 -99 30 -33 31 -33 6 -26 -108 31 -219 113 -316 235
-65 80 -94 105 -137 115 -51 13 -51 -8 -1 -30 40 -18 62 -38 107 -98 80 -106
164 -179 269 -231 l89 -44 -26 -20 c-88 -69 -273 -46 -368 46 -55 52 -85 118
-119 256 -28 116 -59 188 -92 216 -37 30 -6 40 97 35 50 -3 87 -12 133 -34z"/>
<path d="M8653 4073 c-17 -6 -16 -20 1 -26 8 -3 16 2 19 14 5 19 2 21 -20 12z"/>
<path d="M14400 4004 c0 -3 6 -20 14 -39 8 -19 11 -37 7 -39 -4 -3 -7 -19 -6
-36 1 -17 -3 -30 -10 -30 -6 0 -17 -12 -24 -26 -10 -22 -9 -28 6 -40 10 -7 23
-14 30 -14 14 0 27 36 18 50 -3 5 0 10 8 10 18 0 37 39 33 70 -5 44 -35 96
-56 97 -11 1 -20 0 -20 -3z"/>
<path d="M16761 3914 c-22 -28 -27 -59 -13 -68 11 -7 12 -136 2 -136 -5 0 -7
-22 -7 -50 1 -27 6 -50 12 -50 6 0 6 -3 -1 -8 -6 -4 -16 -17 -23 -30 -11 -20
-9 -23 14 -32 64 -24 95 -9 95 45 0 13 5 27 11 31 7 4 9 22 5 48 -11 72 -15
196 -6 226 7 26 5 30 -22 39 -42 15 -44 15 -67 -15z"/>
<path d="M14533 3455 c-9 -25 4 -29 17 -6 7 15 7 21 0 21 -6 0 -13 -7 -17 -15z"/>
<path d="M14549 3418 c-10 -19 -8 -25 20 -50 17 -15 38 -28 46 -28 8 0 15 -4
15 -8 0 -4 12 -13 28 -20 52 -24 87 -45 95 -59 4 -7 15 -13 22 -13 8 0 15 -7
15 -16 0 -24 24 -11 28 15 5 31 -37 69 -138 127 -47 27 -89 54 -93 61 -12 19
-25 16 -38 -9z"/>
<path d="M8516 3206 c3 -9 1 -16 -5 -16 -6 0 -11 -7 -11 -15 0 -8 5 -15 12
-15 6 0 4 -6 -7 -13 -13 -10 -16 -21 -11 -40 5 -20 3 -27 -9 -27 -8 0 -15 -4
-15 -9 0 -5 -3 -17 -7 -27 -5 -14 -3 -16 13 -10 13 5 11 0 -8 -16 -23 -20 -27
-31 -30 -93 -1 -38 3 -88 10 -110 35 -107 44 -125 63 -125 25 0 25 27 -1 109
-18 58 -19 72 -9 149 6 47 17 92 25 99 24 25 45 112 32 137 -6 11 -9 23 -7 26
2 3 -6 6 -18 8 -17 3 -21 0 -17 -12z"/>
<path d="M14827 3203 c-4 -3 -7 -11 -7 -17 0 -6 5 -5 12 2 6 6 9 14 7 17 -3 3
-9 2 -12 -2z"/>
<path d="M14980 3070 c0 -5 5 -10 10 -10 6 0 10 5 10 10 0 6 -4 10 -10 10 -5
0 -10 -4 -10 -10z"/>
<path d="M8495 2551 c-3 -5 -8 -35 -10 -66 -6 -64 24 -153 47 -139 36 20 36
24 17 81 -11 31 -18 62 -15 69 3 8 1 14 -4 14 -6 0 -9 3 -9 8 6 34 -11 56 -26
33z"/>
<path d="M16315 2537 c-53 -12 -70 -21 -70 -38 0 -18 81 -21 120 -5 27 11 27
12 9 32 -17 18 -24 19 -59 11z"/>
<path d="M11888 2300 c-15 -4 -29 -5 -32 -2 -3 3 -6 0 -6 -7 0 -7 -4 -10 -8
-7 -13 8 -32 -8 -24 -21 11 -17 125 -20 151 -4 10 7 11 13 2 30 -12 22 -36 25
-83 11z"/>
<path d="M11350 1955 c-11 -13 -10 -15 6 -12 20 3 31 20 16 25 -5 1 -15 -4
-22 -13z"/>
<path d="M16156 1574 c-5 -12 -2 -15 10 -10 8 3 18 6 20 6 3 0 2 5 -1 10 -9
15 -22 12 -29 -6z"/>
<path d="M10855 839 c-44 -4 -102 -14 -129 -22 -45 -15 -96 -51 -96 -68 0 -5
-10 -19 -22 -33 -13 -13 -40 -42 -60 -65 -20 -22 -48 -65 -62 -95 -14 -30 -35
-60 -46 -66 -30 -16 -21 -41 20 -56 33 -12 33 -13 8 -13 -25 -1 -49 -34 -34
-48 5 -6 80 -27 312 -88 93 -24 282 -48 464 -59 18 -1 164 12 200 18 14 2 46
7 71 10 58 8 99 15 124 21 11 2 47 7 80 10 33 4 76 11 96 16 21 5 88 16 150
24 63 8 128 19 144 24 29 9 94 20 245 41 163 22 393 30 525 19 389 -34 883
-44 1040 -21 178 26 345 72 345 94 0 11 -34 10 -67 -3 -34 -13 -153 -33 -296
-49 -155 -19 -569 -7 -932 26 -194 17 -482 12 -605 -12 -41 -7 -84 -13 -95
-13 -26 1 -116 -11 -135 -18 -46 -16 -132 -32 -176 -33 -29 0 -80 -8 -115 -19
-35 -10 -89 -19 -119 -20 -30 -1 -75 -7 -99 -12 -42 -9 -69 -13 -181 -24 -30
-3 -68 -9 -85 -13 -106 -26 -678 48 -621 80 9 5 35 9 59 10 23 0 47 4 53 9 5
4 57 11 115 15 57 3 136 12 174 21 39 8 88 17 110 20 54 8 61 15 63 69 3 75
-31 152 -101 227 -54 56 -69 67 -115 77 -28 7 -55 16 -58 21 -6 10 -31 10
-149 -2z m-319 -299 c1 -14 2 -30 3 -37 0 -7 18 -15 39 -19 20 -4 40 -12 44
-18 5 -7 8 -4 8 7 0 21 16 22 24 1 12 -30 -10 -50 -48 -46 -20 2 -36 8 -36 13
0 5 -7 6 -15 3 -19 -7 -64 44 -65 73 0 34 11 54 29 51 9 -2 16 -14 17 -28z
m165 -60 c5 0 9 -13 9 -30 0 -16 -4 -30 -9 -30 -4 0 -6 11 -3 25 3 20 0 25
-17 25 -11 0 -21 5 -21 11 0 6 7 8 16 5 9 -3 20 -6 25 -6z"/>
<path d="M9715 753 c-11 -2 -30 -15 -42 -26 -45 -44 -79 -74 -105 -90 -15 -9
-40 -38 -55 -64 -31 -54 -42 -68 -63 -75 -21 -7 24 -48 53 -48 17 0 28 -10 40
-35 19 -41 58 -63 121 -69 25 -3 50 -7 56 -11 11 -7 124 -8 295 -3 126 4 151
11 223 65 32 24 33 27 30 85 -2 48 -7 63 -22 72 -23 13 -136 127 -136 137 0 4
-17 10 -37 14 -21 4 -51 14 -68 23 -16 8 -46 17 -65 18 -106 9 -207 12 -225 7z
m-125 -277 c0 -23 49 -49 80 -42 18 3 30 1 34 -7 2 -7 5 -4 5 6 1 14 21 27 21
13 0 -2 3 -12 7 -22 4 -11 3 -15 -4 -11 -6 4 -10 -1 -9 -10 1 -14 -8 -18 -44
-18 -24 -1 -56 5 -70 13 -30 18 -71 71 -64 84 9 13 44 9 44 -6z m184 -32 c9
-3 16 -14 15 -23 0 -10 -2 -11 -6 -3 -2 6 -13 12 -24 12 -10 0 -19 5 -19 10 0
11 11 13 34 4z"/>
<path d="M17780 659 c-14 -4 -86 -13 -160 -18 -74 -5 -157 -14 -185 -20 -125
-26 -460 -33 -780 -17 -305 16 -426 13 -403 -9 12 -12 129 -23 413 -40 50 -3
119 -9 155 -12 68 -8 302 -7 405 0 33 3 100 8 149 11 50 4 95 11 100 15 6 5
81 11 166 15 140 6 157 9 173 28 20 23 23 58 5 57 -7 0 -24 -5 -38 -10z"/>
<path d="M15395 486 c-28 -13 -57 -29 -65 -37 -36 -34 -189 -128 -234 -143
-67 -23 -190 -24 -321 -3 -60 10 -158 18 -216 18 -88 1 -115 -3 -158 -21 -58
-25 -69 -46 -18 -35 82 19 249 16 371 -5 227 -41 368 -23 486 60 201 140 238
154 321 111 24 -13 46 -26 49 -30 13 -17 90 -58 130 -70 25 -7 56 -20 70 -29
42 -27 371 -54 427 -35 17 6 60 6 108 1 44 -4 109 -8 145 -9 59 -1 222 -23
252 -34 7 -3 28 4 47 16 29 17 32 22 20 34 -8 7 -34 16 -59 18 -25 3 -72 10
-105 16 -62 11 -358 18 -525 13 -52 -2 -129 1 -172 7 -90 12 -245 73 -315 123
-88 64 -155 73 -238 34z"/>
<path d="M8957 424 c-4 -4 -91 -8 -194 -10 -104 -2 -235 -7 -293 -12 -58 -4
-215 -7 -350 -6 -135 2 -348 4 -475 5 -241 2 -329 -4 -322 -24 4 -14 5 -14
349 -20 147 -3 272 -8 277 -11 5 -4 85 -6 178 -5 92 1 192 1 221 0 29 -1 61 3
72 9 11 6 20 7 20 1 0 -9 111 -6 170 5 19 4 40 6 45 5 6 -2 76 -5 157 -8 l147
-4 16 25 c22 34 7 75 -18 50z"/>
</g>
</svg>
